<svg width="16" height="16" viewBox="0 0 16 16" fill="none" xmlns="http://www.w3.org/2000/svg">
<path d="M4.46995 8.46924H6.03232V14.9675C6.03232 15.0958 6.13522 15.1998 6.26221 15.1998H8.91133C9.03832 15.1998 9.14122 15.0958 9.14122 14.9675V8.49985H10.9373C11.0541 8.49985 11.1524 8.4113 11.1657 8.29413L11.4385 5.90179C11.446 5.83598 11.4253 5.77004 11.3818 5.72068C11.3381 5.67127 11.2757 5.64297 11.2101 5.64297H9.14127V4.14334C9.14127 3.69128 9.38218 3.46204 9.85741 3.46204C9.92514 3.46204 11.2101 3.46204 11.2101 3.46204C11.3371 3.46204 11.44 3.35805 11.44 3.22978V1.03379C11.44 0.90549 11.3371 0.801533 11.2101 0.801533H9.34588C9.33278 0.800888 9.30361 0.799805 9.26055 0.799805C8.9371 0.799805 7.81279 0.863954 6.92466 1.6894C5.94062 2.60413 6.07741 3.69936 6.11008 3.88926V5.64288H4.46989C4.3429 5.64288 4.24 5.74684 4.24 5.87514V8.23692C4.24006 8.36525 4.34295 8.46924 4.46995 8.46924Z" fill="white"/>
<path d="M8.82865 15.1998H6.25892C5.97779 15.1998 5.74907 14.9711 5.74907 14.69V8.73738H4.52035C4.23921 8.73738 4.0105 8.50864 4.0105 8.22748V5.95978C4.0105 5.67865 4.23924 5.44993 4.52035 5.44993H5.82453V4.07631C5.78144 3.79849 5.68349 2.67172 6.70726 1.7297C7.6452 0.866883 8.82744 0.799805 9.16741 0.799805C9.20946 0.799805 9.23947 0.800733 9.25674 0.801464H11.0586C11.3397 0.801464 11.5684 1.03018 11.5684 1.31131V3.41976C11.5684 3.7009 11.3397 3.92961 11.0586 3.92961H9.74642C9.40355 3.92961 9.33855 4.0587 9.33855 4.29692V5.44996H11.0586C11.2037 5.44996 11.3424 5.51212 11.4391 5.62048C11.5358 5.72891 11.5816 5.87386 11.565 6.01817L11.3004 8.3152C11.2708 8.57263 11.053 8.76677 10.7939 8.76677H9.33844V14.6899C9.3385 14.9711 9.10976 15.1998 8.82865 15.1998ZM6.32274 14.6261H8.76478V8.47995C8.76478 8.32153 8.89322 8.19311 9.05162 8.19311H10.737L10.9869 6.02374H9.05171C8.89331 6.02374 8.76486 5.89532 8.76486 5.73689V4.29701C8.76486 3.70779 9.13181 3.356 9.74645 3.356H10.9948V1.37519H9.2503C9.24557 1.37519 9.24085 1.37507 9.23612 1.37485C9.23174 1.37462 9.20774 1.37355 9.16744 1.37355C8.87995 1.37355 7.88086 1.42969 7.09573 2.15197C6.25569 2.9249 6.36377 3.83025 6.39401 4.00392C6.39682 4.02014 6.39823 4.0366 6.39823 4.05305V5.73681C6.39823 5.89524 6.26978 6.02366 6.11138 6.02366H4.58416V8.16369H6.03589C6.19429 8.16369 6.32274 8.29211 6.32274 8.45053V14.6261Z" fill="white"/>
<path d="M6.9002 11.1839C6.7418 11.1839 6.61336 11.0555 6.61336 10.8971V10.7536C6.61336 10.5952 6.7418 10.4668 6.9002 10.4668C7.0586 10.4668 7.18705 10.5952 7.18705 10.7536V10.8971C7.18708 11.0555 7.0586 11.1839 6.9002 11.1839Z" fill="white"/>
<path d="M6.9002 14.2821C6.7418 14.2821 6.61336 14.1537 6.61336 13.9952V11.8152C6.61336 11.6567 6.7418 11.5283 6.9002 11.5283C7.0586 11.5283 7.18705 11.6567 7.18705 11.8152V13.9952C7.18708 14.1536 7.0586 14.2821 6.9002 14.2821Z" fill="white"/>
</svg>
