<svg width="16" height="16" viewBox="0 0 16 16" fill="none" xmlns="http://www.w3.org/2000/svg">
<g clip-path="url(#clip0_2121_173)">
<path d="M10.9129 14.9303H5.08706C2.88172 14.9303 1.08755 13.1361 1.08755 10.9308V5.06887C1.08755 2.8635 2.88172 1.06934 5.08706 1.06934H10.9129C13.1183 1.06934 14.9124 2.8635 14.9124 5.06887V10.9308C14.9124 13.1361 13.1182 14.9303 10.9129 14.9303ZM5.08706 2.71294C3.78798 2.71294 2.73113 3.76979 2.73113 5.06887V10.9308C2.73113 12.2299 3.78798 13.2867 5.08706 13.2867H10.9129C12.212 13.2867 13.2688 12.2299 13.2688 10.9308V5.06887C13.2688 3.76979 12.212 2.71294 10.9129 2.71294H5.08706Z" fill="white"/>
<path d="M7.99996 11.4292C6.10908 11.4292 4.57076 9.89081 4.57076 7.99999C4.57076 6.10912 6.10911 4.5708 7.99996 4.5708C9.89081 4.5708 11.4291 6.10915 11.4291 7.99999C11.4292 9.89084 9.89084 11.4292 7.99996 11.4292ZM7.99996 6.17405C6.99315 6.17405 6.17401 6.99316 6.17401 7.99999C6.17401 9.00683 6.99312 9.82594 7.99996 9.82594C9.0068 9.82594 9.82591 9.00683 9.82591 7.99999C9.82591 6.99316 9.00677 6.17405 7.99996 6.17405Z" fill="white"/>
<path d="M11.5099 5.09511C11.1761 5.09511 10.9044 4.82353 10.9044 4.48969C10.9044 4.15586 11.1761 3.88428 11.5099 3.88428C11.8437 3.88428 12.1153 4.15586 12.1153 4.48969C12.1153 4.82353 11.8437 5.09511 11.5099 5.09511Z" fill="white"/>
<path d="M10.9129 15.2179H5.08708C2.72316 15.2179 0.800003 13.2947 0.800003 10.9308V5.06884C0.800003 2.7049 2.72316 0.781738 5.08708 0.781738H10.9129C13.2768 0.781738 15.2 2.7049 15.2 5.06884V10.9308C15.2 13.2947 13.2768 15.2179 10.9129 15.2179ZM5.08708 1.35687C3.04028 1.35687 1.37514 3.02202 1.37514 5.06881V10.9308C1.37514 12.9776 3.04028 14.6427 5.08708 14.6427H10.9129C12.9597 14.6427 14.6248 12.9776 14.6248 10.9308V5.06884C14.6248 3.02204 12.9597 1.3569 10.9129 1.3569H5.08708V1.35687ZM10.9129 13.5743H5.08708C3.62943 13.5743 2.44358 12.3884 2.44358 10.9308V5.06884C2.44358 3.61119 3.62943 2.42537 5.08708 2.42537H10.9129C12.3706 2.42537 13.5564 3.61122 13.5564 5.06884V10.9308C13.5564 12.3884 12.3706 13.5743 10.9129 13.5743ZM5.08708 3.00047C3.94657 3.00047 3.01871 3.92833 3.01871 5.06881V10.9308C3.01871 12.0713 3.94657 12.9991 5.08708 12.9991H10.9129C12.0534 12.9991 12.9813 12.0713 12.9813 10.9308V5.06884C12.9813 3.92836 12.0534 3.0005 10.9129 3.0005H5.08708V3.00047Z" fill="white"/>
<path d="M7.99997 11.7168C5.95052 11.7168 4.2832 10.0494 4.2832 8C4.2832 5.95055 5.95055 4.2832 7.99997 4.2832C10.0494 4.2832 11.7167 5.95055 11.7167 8C11.7167 10.0494 10.0494 11.7168 7.99997 11.7168ZM7.99997 4.85836C6.26769 4.85836 4.85836 6.26769 4.85836 8C4.85836 9.73228 6.26769 11.1416 7.99997 11.1416C9.73225 11.1416 11.1416 9.73228 11.1416 8C11.1416 6.26769 9.73227 4.85836 7.99997 4.85836ZM7.99997 10.1135C6.83459 10.1135 5.88646 9.16538 5.88646 8C5.88646 6.83462 6.83459 5.88649 7.99997 5.88649C9.16535 5.88649 10.1135 6.83462 10.1135 8C10.1135 9.16538 9.16537 10.1135 7.99997 10.1135ZM7.99997 6.46162C7.15171 6.46162 6.46159 7.15173 6.46159 8C6.46159 8.84826 7.15171 9.53837 7.99997 9.53837C8.84823 9.53837 9.53835 8.84826 9.53835 8C9.53835 7.15171 8.84823 6.46162 7.99997 6.46162Z" fill="white"/>
<path d="M11.5099 5.38272C11.0175 5.38272 10.6169 4.98215 10.6169 4.48971C10.6169 3.99728 11.0175 3.59668 11.5099 3.59668C12.0023 3.59668 12.4029 3.99731 12.4029 4.48971C12.4029 4.98212 12.0023 5.38272 11.5099 5.38272ZM11.5099 4.17184C11.3346 4.17184 11.192 4.31442 11.192 4.48971C11.192 4.66498 11.3346 4.80756 11.5099 4.80756C11.6852 4.80756 11.8277 4.66498 11.8277 4.48971C11.8278 4.31445 11.6852 4.17184 11.5099 4.17184Z" fill="white"/>
<path d="M7.53983 14.4125H4.83664C4.67781 14.4125 4.54907 14.2838 4.54907 14.125C4.54907 13.9661 4.67781 13.8374 4.83664 13.8374H7.53983C7.69865 13.8374 7.8274 13.9661 7.8274 14.125C7.8274 14.2838 7.69865 14.4125 7.53983 14.4125Z" fill="white"/>
<path d="M8.63261 14.4125H8.46005C8.30125 14.4125 8.17249 14.2838 8.17249 14.125C8.17249 13.9661 8.30125 13.8374 8.46005 13.8374H8.63261C8.79141 13.8374 8.92017 13.9661 8.92017 14.125C8.92017 14.2838 8.79143 14.4125 8.63261 14.4125Z" fill="white"/>
</g>
<defs>
<clipPath id="clip0_2121_173">
<rect width="16" height="16" fill="white"/>
</clipPath>
</defs>
</svg>
