<svg width="170" height="39" viewBox="0 0 170 39" fill="none" xmlns="http://www.w3.org/2000/svg">
<path d="M44.8482 7.56185L44.1728 8.26944V10.3599C44.1748 10.4305 44.1622 10.5008 44.1357 10.5663C44.1092 10.6318 44.0694 10.6912 44.0188 10.7406C43.9679 10.7931 43.9067 10.8347 43.8392 10.8629C43.7716 10.8911 43.699 10.9054 43.6257 10.9047C43.5548 10.9043 43.4847 10.8895 43.4197 10.8613C43.3547 10.8331 43.2961 10.792 43.2474 10.7406C43.197 10.6911 43.1574 10.6317 43.1311 10.5662C43.1049 10.5007 43.0925 10.4304 43.0948 10.3599V3.76831C43.0991 3.62666 43.1531 3.49099 43.2474 3.38492C43.3528 3.29083 43.4883 3.23697 43.6297 3.23291C43.7724 3.23694 43.9092 3.29074 44.0161 3.38492C44.1129 3.49331 44.1676 3.63267 44.1701 3.77773V6.72378L47.1987 3.49523C47.2398 3.43902 47.2921 3.39177 47.3523 3.35638C47.4124 3.32098 47.4792 3.2982 47.5485 3.28941C47.62 3.27704 47.6933 3.28038 47.7633 3.29921C47.8333 3.31803 47.8983 3.35188 47.9538 3.39837C48.0104 3.43937 48.058 3.49139 48.0937 3.55129C48.1295 3.61119 48.1527 3.6777 48.1618 3.74679C48.1739 3.81793 48.1703 3.89084 48.1514 3.96049C48.1326 4.03015 48.0988 4.09492 48.0524 4.15036L45.602 6.77893L48.0835 10.0223C48.133 10.0742 48.1708 10.1362 48.1941 10.204C48.2174 10.2718 48.2257 10.3438 48.2185 10.4151C48.1994 10.561 48.1232 10.6934 48.0065 10.7837C47.9108 10.8607 47.7917 10.9029 47.6687 10.9034C47.5889 10.9048 47.5098 10.8878 47.4376 10.8537C47.3655 10.8196 47.3022 10.7694 47.2527 10.707L44.8482 7.56185Z" fill="white"/>
<path d="M51.5605 7.94392L49.3411 10.6653C49.2912 10.729 49.2275 10.7808 49.1548 10.8166C49.0821 10.8525 49.0022 10.8716 48.921 10.8725C48.8011 10.8709 48.6853 10.8287 48.5928 10.7528C48.5355 10.7121 48.4871 10.6602 48.4507 10.6003C48.4142 10.5404 48.3904 10.4737 48.3807 10.4043C48.3682 10.3332 48.3715 10.2602 48.3904 10.1905C48.4093 10.1207 48.4433 10.056 48.4901 10.0008L50.873 7.06145L48.5158 4.14365C48.4695 4.08817 48.4357 4.0234 48.4168 3.95375C48.398 3.88411 48.3944 3.81123 48.4063 3.74008C48.4116 3.66965 48.4326 3.60126 48.4676 3.53985C48.5026 3.47844 48.5509 3.42553 48.609 3.38494C48.6626 3.33943 48.7256 3.3061 48.7934 3.28728C48.8613 3.26847 48.9325 3.26461 49.0021 3.27598C49.1444 3.29663 49.2735 3.37075 49.3627 3.48314L51.5605 6.18302L53.7138 3.47911C53.803 3.36671 53.9321 3.29259 54.0745 3.27194C54.1442 3.26064 54.2156 3.26453 54.2837 3.28334C54.3518 3.30216 54.415 3.33544 54.4689 3.38091C54.5281 3.42164 54.5773 3.47503 54.6131 3.53718C54.6489 3.59933 54.6702 3.66865 54.6756 3.74008C54.6878 3.81123 54.6844 3.88417 54.6655 3.95386C54.6466 4.02355 54.6127 4.08831 54.5662 4.14365L52.2495 7.06145L51.5605 7.94392Z" fill="white"/>
<path d="M58.1418 3.26143C58.4251 3.26517 58.7047 3.3257 58.9639 3.43941C59.2232 3.55313 59.4568 3.71769 59.6507 3.92329C60.0438 4.31708 60.267 4.84802 60.2731 5.40321C60.2791 5.9584 60.0675 6.49404 59.6831 6.89624C59.2887 7.30987 58.7558 7.56539 58.1851 7.61459C58.1788 7.62087 57.5556 7.62446 56.3155 7.62535V10.3158C56.3173 10.3872 56.3036 10.4582 56.2754 10.5239C56.2472 10.5896 56.2051 10.6485 56.1521 10.6965C56.1029 10.7483 56.0436 10.7895 55.9779 10.8178C55.9121 10.846 55.8413 10.8606 55.7698 10.8606C55.6269 10.8573 55.4907 10.7997 55.389 10.6997C55.2873 10.5997 55.2278 10.4648 55.2227 10.3225V3.80625C55.2219 3.73338 55.236 3.66111 55.2641 3.59382C55.2922 3.52652 55.3337 3.46562 55.3861 3.41479C55.4361 3.36441 55.4959 3.32479 55.5619 3.29841C55.6279 3.27203 55.6987 3.25944 55.7698 3.26143H58.1418ZM58.054 6.53841C58.2026 6.5413 58.3502 6.51365 58.4876 6.45717C58.6249 6.4007 58.7491 6.31661 58.8524 6.21017C59.0601 6.00179 59.18 5.72216 59.1874 5.4286C59.1781 5.13701 59.0567 4.86012 58.8483 4.65509C58.743 4.55302 58.6179 4.47341 58.4806 4.42114C58.3434 4.36887 58.1968 4.34502 58.05 4.35107H56.3155V6.53841H58.054Z" fill="white"/>
<path d="M67.4667 5.91822C67.3426 5.98515 67.1972 6.00108 67.0614 5.96261C66.9952 5.94783 66.933 5.91855 66.8795 5.8769C66.826 5.83526 66.7825 5.78228 66.7521 5.72182C66.2064 4.81513 65.4229 4.36179 64.4016 4.36179C63.6774 4.36669 62.984 4.65464 62.4709 5.16364C61.9577 5.67264 61.6659 6.36197 61.6581 7.08319C61.6524 7.43941 61.7216 7.79288 61.8612 8.12092C62.0007 8.44896 62.2076 8.74431 62.4686 8.98803C62.7231 9.23866 63.0253 9.43618 63.3575 9.569C63.6896 9.70182 64.0451 9.76728 64.403 9.76154C64.8508 9.76345 65.2919 9.65238 65.6849 9.43868C66.087 9.21954 66.4289 8.90542 66.6805 8.52393C66.7128 8.45834 66.7609 8.40176 66.8206 8.35927C66.8802 8.31677 66.9495 8.28969 67.0223 8.28044C67.09 8.26436 67.1608 8.26593 67.2278 8.28502C67.2947 8.3041 67.3556 8.34006 67.4045 8.3894C67.4699 8.4194 67.528 8.46322 67.5746 8.51782C67.6213 8.57241 67.6554 8.63647 67.6747 8.70553C67.6982 8.77366 67.7035 8.84672 67.69 8.91749C67.6765 8.98826 67.6447 9.0543 67.5977 9.1091C67.2548 9.64904 66.7816 10.0949 66.2212 10.4059C65.6642 10.7187 65.0343 10.8801 64.3949 10.874C63.8911 10.8803 63.3913 10.7851 62.9254 10.5941C62.4595 10.4032 62.0372 10.1204 61.6837 9.76288C61.316 9.42028 61.0241 9.00495 60.8268 8.5435C60.6296 8.08205 60.5313 7.58466 60.5382 7.08319C60.5302 6.57516 60.6282 6.07101 60.8258 5.60259C61.0234 5.13418 61.3165 4.71168 61.6864 4.36179C62.283 3.77243 63.057 3.3938 63.89 3.28376C64.723 3.17372 65.5693 3.33832 66.2996 3.7524C66.8772 4.07405 67.3506 4.55338 67.6639 5.13395C67.7089 5.20227 67.739 5.27924 67.7523 5.35988C67.7656 5.44052 67.7617 5.52304 67.7409 5.60209C67.7213 5.67158 67.6865 5.73592 67.6391 5.79055C67.5917 5.84518 67.5329 5.88877 67.4667 5.91822Z" fill="white"/>
<path d="M69.031 10.862C68.9592 10.8645 68.8877 10.8522 68.821 10.8258C68.7542 10.7994 68.6937 10.7595 68.6433 10.7086C68.5908 10.6578 68.5493 10.5969 68.5212 10.5296C68.4931 10.4623 68.479 10.39 68.4798 10.3171V3.80624C68.4765 3.73462 68.4895 3.66319 68.5178 3.59727C68.5461 3.53135 68.589 3.47265 68.6433 3.42554C68.6917 3.37246 68.751 3.33035 68.8172 3.30204C68.8834 3.27373 68.9549 3.25988 69.0269 3.26142C69.0985 3.26148 69.1693 3.27606 69.235 3.30428C69.3008 3.3325 69.36 3.37375 69.4092 3.42554C69.4635 3.47265 69.5063 3.53135 69.5347 3.59727C69.563 3.66319 69.5759 3.73462 69.5727 3.80624V6.49669C70.8127 6.49669 71.4359 6.50028 71.4422 6.50745C72.0129 6.55666 72.5458 6.81218 72.9403 7.22581C73.3251 7.61857 73.5374 8.14747 73.5306 8.69614C73.5236 9.26113 73.2982 9.80168 72.9011 10.2053C72.5041 10.609 71.9661 10.8446 71.399 10.8633L69.031 10.862ZM69.5713 7.58364V9.77232H71.3098C71.4567 9.77837 71.6032 9.75453 71.7405 9.70225C71.8777 9.64998 72.0029 9.57037 72.1082 9.4683C72.3166 9.26327 72.438 8.98638 72.4472 8.6948C72.4395 8.39973 72.3181 8.11894 72.1082 7.91053C72.0048 7.80433 71.8806 7.7205 71.7432 7.66426C71.6059 7.60801 71.4583 7.58057 71.3098 7.58364H69.5713ZM73.8683 3.76319C73.8683 3.62048 73.9253 3.48361 74.0266 3.3827C74.1279 3.28179 74.2654 3.2251 74.4087 3.2251C74.5554 3.22873 74.6957 3.28566 74.8031 3.38518C74.8975 3.49071 74.9515 3.62597 74.9558 3.76722V10.3387C74.9577 10.4091 74.9451 10.4792 74.9189 10.5447C74.8926 10.6102 74.8532 10.6696 74.8031 10.7194C74.7539 10.7711 74.6947 10.8124 74.6289 10.8406C74.5632 10.8688 74.4924 10.8834 74.4208 10.8835C74.2791 10.8785 74.1446 10.8202 74.0443 10.7203C73.9441 10.6205 73.8855 10.4865 73.8805 10.3454L73.8683 3.76319Z" fill="white"/>
<path d="M83.6147 3.23975C83.7564 3.24394 83.8919 3.29832 83.9969 3.3931C84.0948 3.50193 84.1496 3.64251 84.1509 3.7886C84.1467 3.9297 84.0921 4.06469 83.9969 4.1693C83.8918 4.2637 83.7562 4.3176 83.6147 4.32131H81.9531V10.3385C81.9551 10.4091 81.9424 10.4793 81.9159 10.5448C81.8895 10.6103 81.8497 10.6697 81.7991 10.7192C81.7501 10.7712 81.6909 10.8127 81.6251 10.8409C81.5594 10.8692 81.4885 10.8836 81.4168 10.8833C81.2751 10.8783 81.1406 10.82 81.0403 10.7202C80.9401 10.6203 80.8815 10.4864 80.8765 10.3452V4.31727H79.219C79.1482 4.31934 79.0778 4.30691 79.012 4.28076C78.9463 4.25461 78.8866 4.2153 78.8367 4.16526C78.7853 4.11678 78.7443 4.05839 78.7162 3.99364C78.6881 3.9289 78.6735 3.85914 78.6733 3.7886C78.6725 3.71573 78.6866 3.64345 78.7147 3.57616C78.7428 3.50887 78.7843 3.44796 78.8367 3.39714C78.8866 3.34692 78.9462 3.3074 79.0119 3.28103C79.0777 3.25465 79.1482 3.24198 79.219 3.24378L83.6147 3.23975Z" fill="white"/>
<path d="M87.5172 7.94394L85.2978 10.6653C85.2473 10.7298 85.1828 10.7819 85.1091 10.8178C85.0353 10.8537 84.9544 10.8724 84.8723 10.8725C84.7523 10.8714 84.6364 10.8291 84.544 10.7528C84.4874 10.7119 84.4396 10.6599 84.4039 10.6C84.3681 10.5401 84.345 10.4735 84.336 10.4044C84.3241 10.3332 84.3278 10.2604 84.3466 10.1907C84.3655 10.1211 84.3992 10.0563 84.4454 10.0008L86.8283 7.06147L84.4671 4.14367C84.4208 4.08819 84.387 4.02342 84.3681 3.95377C84.3492 3.88413 84.3457 3.81125 84.3576 3.7401C84.3752 3.59872 84.4483 3.47005 84.561 3.38229C84.6737 3.29453 84.8167 3.25486 84.9588 3.27196C85.1011 3.29261 85.2302 3.36673 85.3194 3.47913L87.5172 6.179L89.6718 3.47913C89.7611 3.36673 89.8901 3.29261 90.0325 3.27196C90.1745 3.25486 90.3176 3.29453 90.4302 3.38229C90.5429 3.47005 90.6161 3.59872 90.6336 3.7401C90.6456 3.81125 90.642 3.88413 90.6231 3.95377C90.6043 4.02342 90.5705 4.08819 90.5242 4.14367L88.2062 7.06147L87.5172 7.94394Z" fill="white"/>
<path d="M94.0986 3.26143C94.3818 3.26516 94.6614 3.32569 94.9207 3.43941C95.1799 3.55312 95.4135 3.71769 95.6075 3.92328C95.8079 4.1188 95.9664 4.35277 96.0734 4.61105C96.1805 4.86932 96.2338 5.14652 96.2302 5.4259C96.2339 5.69762 96.1836 5.96738 96.0823 6.2197C95.981 6.47202 95.8306 6.70193 95.6399 6.89624C95.2457 7.30957 94.7134 7.56507 94.1431 7.61459C94.135 7.62087 93.5118 7.62445 92.2736 7.62535V10.3158C92.2751 10.3873 92.2612 10.4583 92.2327 10.524C92.2043 10.5897 92.162 10.6485 92.1088 10.6965C92.0597 10.7484 92.0004 10.7898 91.9347 10.818C91.8689 10.8462 91.7981 10.8607 91.7265 10.8606C91.585 10.855 91.4508 10.7965 91.3507 10.6968C91.2505 10.5971 91.1918 10.4634 91.1861 10.3225V3.80625C91.1855 3.73328 91.1998 3.66095 91.2281 3.59365C91.2565 3.52635 91.2982 3.4655 91.3509 3.41479C91.4007 3.36444 91.4603 3.32484 91.526 3.29845C91.5918 3.27207 91.6623 3.25946 91.7332 3.26143H94.0986ZM94.0121 6.53841C94.1605 6.54111 94.3078 6.51337 94.4449 6.4569C94.582 6.40043 94.706 6.31644 94.8091 6.21017C95.0195 6.00208 95.1409 5.72109 95.1482 5.4259C95.1396 5.13417 95.0181 4.85702 94.8091 4.6524C94.7039 4.55049 94.579 4.47098 94.442 4.41871C94.305 4.36645 94.1587 4.34251 94.0121 4.34837H92.2736V6.53841H94.0121Z" fill="white"/>
<path d="M100.928 9.77233C101.07 9.77653 101.206 9.8309 101.311 9.92569C101.363 9.97652 101.405 10.0374 101.433 10.1047C101.461 10.172 101.475 10.2443 101.474 10.3171C101.476 10.3886 101.462 10.4595 101.434 10.5252C101.406 10.5909 101.364 10.6498 101.311 10.6978C101.262 10.7496 101.202 10.7909 101.137 10.8191C101.071 10.8473 101 10.8619 100.928 10.862H97.1163C96.9748 10.8563 96.8407 10.7978 96.7405 10.6981C96.6404 10.5984 96.5816 10.4648 96.576 10.3239V3.80625C96.5754 3.73328 96.5897 3.66095 96.618 3.59365C96.6463 3.52635 96.6881 3.4655 96.7408 3.41479C96.7905 3.36444 96.8501 3.32484 96.9159 3.29845C96.9817 3.27207 97.0522 3.25946 97.1231 3.26143H100.928C101.07 3.26563 101.206 3.32 101.311 3.41479C101.363 3.46561 101.405 3.52652 101.433 3.59381C101.461 3.6611 101.475 3.73337 101.474 3.80625C101.477 3.87826 101.465 3.95007 101.437 4.01673C101.41 4.08339 101.368 4.1433 101.315 4.19233C101.265 4.24363 101.204 4.28418 101.138 4.31148C101.072 4.33878 101 4.35225 100.928 4.35106H97.6594V6.5384H100.152C100.293 6.5426 100.429 6.59698 100.534 6.69176C100.587 6.74247 100.628 6.80333 100.657 6.87062C100.685 6.93792 100.699 7.01025 100.699 7.08322C100.7 7.15473 100.686 7.22574 100.658 7.29142C100.629 7.3571 100.587 7.41593 100.534 7.46392C100.485 7.51583 100.426 7.55717 100.36 7.5854C100.294 7.61363 100.223 7.62814 100.152 7.62804H97.6634V9.77233H100.928Z" fill="white"/>
<path d="M107.699 10.8726H102.684C102.613 10.8741 102.541 10.8602 102.475 10.8318C102.41 10.8035 102.35 10.7615 102.302 10.7085C102.25 10.6596 102.209 10.6005 102.181 10.535C102.153 10.4696 102.138 10.399 102.139 10.3278V3.81691C102.136 3.7453 102.149 3.6739 102.177 3.608C102.205 3.5421 102.248 3.48338 102.302 3.43621C102.35 3.38324 102.41 3.34118 102.475 3.31287C102.541 3.28456 102.613 3.27065 102.684 3.27209C102.756 3.27197 102.827 3.28646 102.893 3.31468C102.959 3.34291 103.019 3.38426 103.068 3.43621C103.121 3.48402 103.163 3.54302 103.19 3.60889C103.217 3.67476 103.229 3.74583 103.225 3.81691V9.78299H106.602V3.81691C106.599 3.7453 106.612 3.6739 106.64 3.608C106.668 3.5421 106.711 3.48338 106.765 3.43621C106.814 3.38313 106.873 3.34102 106.939 3.31271C107.006 3.2844 107.077 3.27055 107.149 3.27209C107.221 3.27215 107.291 3.28673 107.357 3.31495C107.423 3.34317 107.482 3.38442 107.531 3.43621C107.586 3.48338 107.628 3.5421 107.657 3.608C107.685 3.6739 107.698 3.7453 107.695 3.81691V9.78299H108.253C108.398 9.78558 108.537 9.84 108.646 9.93635C108.741 10.0408 108.796 10.1759 108.8 10.317V12.1022C108.802 12.1728 108.789 12.243 108.763 12.3085C108.736 12.374 108.696 12.4333 108.646 12.4829C108.542 12.5871 108.4 12.6461 108.253 12.647C108.179 12.6476 108.107 12.6334 108.039 12.6052C107.972 12.5769 107.91 12.5353 107.86 12.4829C107.806 12.4349 107.764 12.376 107.736 12.3104C107.707 12.2447 107.693 12.1737 107.695 12.1022L107.699 10.8726Z" fill="white"/>
<path d="M111.11 7.56185L110.434 8.26944V10.3599C110.436 10.4305 110.424 10.5008 110.397 10.5663C110.371 10.6318 110.331 10.6912 110.28 10.7406C110.229 10.7931 110.168 10.8347 110.101 10.8629C110.033 10.8911 109.96 10.9054 109.887 10.9047C109.816 10.9048 109.745 10.8903 109.679 10.8621C109.613 10.8339 109.554 10.7925 109.505 10.7406C109.454 10.6912 109.414 10.6318 109.388 10.5663C109.361 10.5008 109.349 10.4305 109.351 10.3599V3.76831C109.355 3.62668 109.409 3.49105 109.504 3.38492C109.609 3.29083 109.744 3.23697 109.886 3.23291C110.031 3.23583 110.17 3.28967 110.279 3.38492C110.376 3.49331 110.43 3.63267 110.433 3.77773V6.72378L113.46 3.49523C113.501 3.43918 113.554 3.39205 113.614 3.35668C113.674 3.32131 113.741 3.29843 113.81 3.28941C113.881 3.27722 113.955 3.28066 114.025 3.29947C114.095 3.31829 114.16 3.35203 114.215 3.39837C114.272 3.43953 114.319 3.49161 114.355 3.55147C114.391 3.61134 114.414 3.67777 114.423 3.74679C114.435 3.81793 114.432 3.89084 114.413 3.96049C114.394 4.03015 114.36 4.09492 114.314 4.15036L111.87 6.77893L114.352 10.0223C114.401 10.0742 114.439 10.1362 114.462 10.204C114.486 10.2718 114.494 10.3438 114.487 10.4151C114.477 10.4877 114.452 10.5577 114.415 10.6209C114.378 10.6842 114.328 10.7395 114.269 10.7837C114.173 10.861 114.054 10.9032 113.93 10.9034C113.851 10.9047 113.772 10.8876 113.7 10.8535C113.628 10.8195 113.565 10.7693 113.516 10.707L111.11 7.56185Z" fill="white"/>
<path d="M118.534 10.8618C118.033 10.8694 117.536 10.7725 117.074 10.5774C116.613 10.3824 116.198 10.0934 115.855 9.72916C115.499 9.3757 115.218 8.9546 115.028 8.49083C114.838 8.02705 114.744 7.53005 114.75 7.02928C114.746 6.53532 114.842 6.04564 115.032 5.58926C115.222 5.13289 115.502 4.71911 115.855 4.37246C116.206 4.02035 116.623 3.74087 117.083 3.55015C117.542 3.35943 118.035 3.26123 118.533 3.26123C119.031 3.26123 119.524 3.35943 119.984 3.55015C120.443 3.74087 120.861 4.02035 121.211 4.37246C121.565 4.71911 121.845 5.13289 122.034 5.58926C122.224 6.04564 122.32 6.53532 122.316 7.02928C122.323 7.53005 122.229 8.02705 122.039 8.49083C121.849 8.9546 121.568 9.3757 121.211 9.72916C120.869 10.0934 120.454 10.3823 119.993 10.5774C119.532 10.7724 119.035 10.8693 118.534 10.8618ZM118.534 4.3173C117.812 4.31801 117.12 4.60397 116.609 5.11241C116.098 5.62085 115.811 6.31024 115.811 7.02928C115.802 7.39464 115.868 7.75796 116.005 8.09688C116.142 8.43581 116.348 8.74317 116.609 9.00004C116.86 9.25404 117.16 9.45575 117.49 9.59342C117.821 9.7311 118.175 9.802 118.533 9.802C118.891 9.802 119.246 9.7311 119.576 9.59342C119.907 9.45575 120.206 9.25404 120.458 9.00004C120.717 8.74154 120.923 8.43416 121.062 8.0958C121.201 7.75745 121.271 7.3949 121.268 7.02928C121.271 6.67159 121.201 6.31698 121.062 5.9873C120.923 5.65762 120.717 5.35985 120.458 5.11233C120.208 4.85599 119.909 4.6532 119.578 4.51646C119.248 4.37972 118.892 4.31194 118.534 4.3173Z" fill="white"/>
<path d="M124.01 4.36172V10.3278C124.011 10.4007 123.997 10.473 123.969 10.5402C123.941 10.6075 123.899 10.6684 123.847 10.7193C123.742 10.8141 123.606 10.8684 123.464 10.8726C123.394 10.8744 123.323 10.8618 123.257 10.8354C123.192 10.809 123.132 10.7695 123.082 10.7193C123.03 10.6684 122.988 10.6075 122.96 10.5402C122.932 10.473 122.918 10.4007 122.919 10.3278V3.81691C122.916 3.7453 122.929 3.6739 122.957 3.608C122.985 3.5421 123.028 3.48338 123.082 3.43621C123.131 3.38313 123.19 3.34102 123.256 3.31271C123.322 3.2844 123.394 3.27055 123.466 3.27209H127.27C127.341 3.27199 127.412 3.2865 127.478 3.31473C127.544 3.34296 127.603 3.3843 127.652 3.43621C127.705 3.48395 127.747 3.54291 127.774 3.60877C127.802 3.67463 127.814 3.74574 127.81 3.81691C127.811 3.8901 127.797 3.96269 127.768 4.03023C127.74 4.09777 127.698 4.15884 127.645 4.20971C127.542 4.30235 127.409 4.3561 127.27 4.36172H124.01Z" fill="white"/>
<path d="M131.871 10.862C131.37 10.8695 130.872 10.7726 130.411 10.5775C129.95 10.3825 129.535 10.0935 129.192 9.72927C128.836 9.37574 128.555 8.9546 128.365 8.49082C128.176 8.02705 128.081 7.53008 128.088 7.0294C128.084 6.53552 128.18 6.04587 128.37 5.58949C128.559 5.13311 128.839 4.71929 129.192 4.37257C129.543 4.02042 129.96 3.74092 130.42 3.55018C130.88 3.35943 131.373 3.26123 131.871 3.26123C132.369 3.26123 132.862 3.35943 133.322 3.55018C133.781 3.74092 134.199 4.02042 134.549 4.37257C134.903 4.71922 135.183 5.133 135.373 5.58938C135.562 6.04575 135.658 6.53544 135.654 7.0294C135.661 7.53016 135.567 8.02717 135.377 8.49094C135.187 8.95471 134.906 9.37581 134.549 9.72927C134.207 10.0935 133.792 10.3825 133.33 10.5775C132.869 10.7726 132.372 10.8695 131.871 10.862ZM131.871 4.31742C131.149 4.31848 130.457 4.6046 129.947 5.113C129.436 5.6214 129.15 6.31059 129.149 7.0294C129.14 7.39475 129.206 7.75807 129.343 8.097C129.481 8.43592 129.686 8.74328 129.947 9.00015C130.199 9.25416 130.498 9.45586 130.828 9.59354C131.159 9.73121 131.513 9.80211 131.871 9.80211C132.23 9.80211 132.584 9.73121 132.914 9.59354C133.245 9.45586 133.544 9.25416 133.796 9.00015C134.055 8.74165 134.261 8.43427 134.4 8.09592C134.539 7.75757 134.609 7.39501 134.606 7.0294C134.61 6.6717 134.539 6.31709 134.4 5.98741C134.261 5.65773 134.055 5.35996 133.796 5.11245C133.546 4.856 133.247 4.65315 132.916 4.51642C132.585 4.37968 132.229 4.31195 131.871 4.31742Z" fill="white"/>
<path d="M144.095 3.28421C144.168 3.28342 144.24 3.29744 144.308 3.32542C144.375 3.3534 144.437 3.39476 144.488 3.44698C144.54 3.49593 144.581 3.55497 144.609 3.62046C144.637 3.68594 144.651 3.75647 144.651 3.82768V10.3386C144.653 10.41 144.639 10.481 144.611 10.5467C144.583 10.6124 144.541 10.6712 144.488 10.7193C144.385 10.8175 144.247 10.8724 144.105 10.8724C143.962 10.8724 143.825 10.8175 143.722 10.7193C143.669 10.6712 143.627 10.6124 143.598 10.5467C143.57 10.481 143.556 10.41 143.558 10.3386V7.64813H142.442L140.628 10.6076C140.581 10.6897 140.512 10.7579 140.43 10.8051C140.347 10.8524 140.253 10.8771 140.158 10.8767C140.058 10.8813 139.959 10.8545 139.874 10.8C139.811 10.7623 139.755 10.7119 139.712 10.652C139.668 10.5921 139.638 10.5238 139.622 10.4516C139.603 10.3835 139.599 10.3123 139.611 10.2426C139.622 10.173 139.649 10.1066 139.688 10.048L141.219 7.56473C140.755 7.40933 140.349 7.12159 140.049 6.73741C139.756 6.36896 139.597 5.91201 139.6 5.44196C139.603 5.15392 139.664 4.86938 139.78 4.60556C139.896 4.34173 140.065 4.10411 140.276 3.90705C140.471 3.70933 140.704 3.55259 140.962 3.44608C141.219 3.33957 141.495 3.28545 141.774 3.2869L144.095 3.28421ZM143.554 6.56119V4.3725H141.816C141.669 4.36663 141.522 4.39069 141.385 4.44319C141.248 4.4957 141.122 4.57555 141.017 4.67787C140.809 4.88232 140.687 5.15882 140.678 5.45003C140.686 5.74509 140.807 6.02588 141.017 6.2343C141.121 6.34049 141.245 6.42432 141.382 6.48057C141.52 6.53681 141.667 6.56425 141.816 6.56119H143.554Z" fill="white"/>
<path d="M146.452 8.82538C146.472 8.97087 146.523 9.11062 146.6 9.23601C146.676 9.36141 146.778 9.4698 146.899 9.55449C147.154 9.74395 147.467 9.83907 147.785 9.82354C148.107 9.83343 148.42 9.72031 148.66 9.50741C148.771 9.41326 148.859 9.29621 148.919 9.16445C148.98 9.03269 149.01 8.88942 149.009 8.74467C149.008 8.59571 148.977 8.44848 148.917 8.312C148.857 8.17552 148.77 8.05267 148.66 7.95098C148.546 7.83647 148.409 7.74648 148.259 7.68656C148.108 7.62664 147.947 7.59805 147.785 7.60257C147.622 7.6065 147.463 7.55209 147.337 7.44921C147.283 7.40115 147.241 7.34228 147.213 7.27659C147.185 7.2109 147.171 7.13993 147.173 7.06851C147.172 6.99564 147.186 6.92337 147.214 6.85607C147.243 6.78878 147.284 6.72788 147.337 6.67705C147.463 6.57417 147.622 6.51976 147.785 6.52369C147.946 6.52985 148.107 6.50307 148.258 6.445C148.408 6.38694 148.545 6.29881 148.66 6.18604C148.771 6.08236 148.859 5.95725 148.919 5.81842C148.979 5.6796 149.009 5.53002 149.009 5.3789C149.01 5.23417 148.979 5.09092 148.919 4.95918C148.859 4.82743 148.771 4.71037 148.66 4.61616C148.42 4.40326 148.107 4.29014 147.785 4.30003C147.478 4.30261 147.178 4.39372 146.922 4.56235C146.693 4.69401 146.525 4.9085 146.452 5.16098C146.413 5.30376 146.329 5.42999 146.211 5.52015C146.151 5.56982 146.08 5.60382 146.004 5.61909C145.927 5.63436 145.848 5.63041 145.774 5.60759C145.403 5.54123 145.217 5.33765 145.216 4.99686C145.279 4.73397 145.393 4.48607 145.553 4.26743C145.712 4.04879 145.913 3.86374 146.145 3.72293C146.632 3.40215 147.206 3.23738 147.789 3.25075C148.42 3.2415 149.033 3.45825 149.517 3.86149C149.75 4.04172 149.938 4.27295 150.067 4.53725C150.196 4.80155 150.262 5.09184 150.26 5.38563C150.266 5.7169 150.189 6.04446 150.036 6.3389C149.884 6.63334 149.66 6.88544 149.386 7.07255C149.658 7.25924 149.88 7.50974 150.033 7.80202C150.185 8.09429 150.263 8.41939 150.26 8.7487C150.26 9.32356 150.012 9.82444 149.517 10.2513C149.042 10.6727 148.425 10.902 147.789 10.8943C147.173 10.9064 146.57 10.7174 146.072 10.3562C145.623 10.0282 145.318 9.5408 145.22 8.99488C145.22 8.65409 145.406 8.44737 145.778 8.37473C145.942 8.3737 146.102 8.42302 146.237 8.51598C146.295 8.54693 146.344 8.59112 146.382 8.64491C146.419 8.69871 146.443 8.76056 146.452 8.82538Z" fill="white"/>
<path d="M151.45 10.862C151.379 10.8639 151.308 10.8513 151.243 10.8249C151.177 10.7986 151.117 10.759 151.068 10.7086C151.015 10.6578 150.974 10.5969 150.946 10.5296C150.917 10.4623 150.903 10.39 150.904 10.3171V3.80624C150.901 3.73462 150.914 3.66319 150.942 3.59727C150.97 3.53135 151.013 3.47265 151.068 3.42554C151.116 3.3725 151.175 3.33039 151.241 3.30208C151.307 3.27376 151.378 3.2599 151.45 3.26142C151.522 3.2613 151.593 3.27579 151.659 3.30401C151.725 3.33224 151.784 3.37359 151.834 3.42554C151.888 3.47283 151.93 3.53157 151.959 3.59744C151.987 3.66332 152 3.73466 151.997 3.80624V6.49669C153.236 6.49669 153.859 6.50028 153.867 6.50745C154.438 6.5559 154.972 6.81095 155.367 7.22446C155.752 7.61723 155.964 8.14612 155.958 8.6948C155.95 9.25968 155.725 9.80005 155.328 10.2036C154.931 10.6072 154.393 10.843 153.826 10.862H151.45ZM151.99 7.58364V9.77233H153.729C153.876 9.77837 154.022 9.75453 154.159 9.70225C154.297 9.64998 154.422 9.57037 154.527 9.4683C154.736 9.26354 154.857 8.98637 154.865 8.6948C154.858 8.39977 154.737 8.11876 154.527 7.91053C154.424 7.80434 154.299 7.7205 154.162 7.66426C154.025 7.60801 153.877 7.58057 153.729 7.58364H151.99ZM156.287 3.76319C156.287 3.62048 156.344 3.48361 156.445 3.3827C156.547 3.28179 156.684 3.2251 156.828 3.2251C156.969 3.2293 157.105 3.28312 157.211 3.37711C157.306 3.48264 157.36 3.6179 157.364 3.75915V10.3387C157.366 10.4091 157.353 10.4792 157.327 10.5447C157.301 10.6102 157.261 10.6696 157.211 10.7194C157.162 10.7713 157.102 10.8127 157.036 10.8409C156.97 10.8691 156.899 10.8836 156.828 10.8835C156.686 10.8785 156.551 10.8202 156.451 10.7203C156.351 10.6205 156.292 10.4865 156.287 10.3454V3.76319Z" fill="white"/>
<path d="M159.859 7.56199L159.183 8.26958V10.3601C159.185 10.4305 159.173 10.5007 159.147 10.5661C159.12 10.6316 159.081 10.691 159.031 10.7408C158.98 10.7932 158.919 10.8348 158.851 10.8631C158.784 10.8913 158.711 10.9055 158.638 10.9049C158.566 10.905 158.495 10.8905 158.429 10.8623C158.363 10.8341 158.303 10.7927 158.254 10.7408C158.204 10.691 158.164 10.6316 158.138 10.5661C158.112 10.5007 158.099 10.4305 158.101 10.3601V3.76845C158.104 3.62365 158.158 3.48447 158.254 3.37564C158.36 3.28146 158.496 3.22761 158.638 3.22363C158.783 3.22979 158.921 3.28698 159.028 3.38506C159.124 3.49389 159.178 3.63307 159.181 3.77787V6.72392L162.209 3.49537C162.251 3.43932 162.303 3.39219 162.363 3.35682C162.423 3.32145 162.49 3.29856 162.559 3.28955C162.631 3.27718 162.704 3.28052 162.774 3.29934C162.844 3.31817 162.909 3.35202 162.964 3.39851C163.021 3.43928 163.069 3.49125 163.105 3.55118C163.141 3.61112 163.164 3.67775 163.172 3.74693C163.185 3.81807 163.181 3.89098 163.162 3.96063C163.143 4.03029 163.109 4.09506 163.063 4.1505L160.614 6.77504L163.097 10.0184C163.146 10.0707 163.183 10.1327 163.206 10.2004C163.23 10.2681 163.238 10.3399 163.232 10.4112C163.213 10.5566 163.138 10.6891 163.024 10.7811C162.928 10.8584 162.808 10.9007 162.685 10.9009C162.605 10.9021 162.526 10.8851 162.454 10.851C162.382 10.8169 162.318 10.7668 162.269 10.7044L159.859 7.56199Z" fill="white"/>
<path d="M167.578 9.35938H164.91L164.45 10.4692C164.399 10.7302 164.225 10.862 163.926 10.862H163.805C163.73 10.834 163.662 10.7916 163.604 10.7374C163.546 10.6832 163.5 10.6181 163.467 10.5459C163.394 10.4665 163.375 10.332 163.412 10.1423L165.751 3.65426C165.779 3.53514 165.849 3.42992 165.948 3.35782C166.047 3.28571 166.169 3.25151 166.292 3.26146C166.41 3.25337 166.528 3.28882 166.623 3.36116C166.717 3.4335 166.782 3.53773 166.805 3.65426L169.024 10.1423C169.076 10.272 169.076 10.4162 169.024 10.5459C168.96 10.6893 168.842 10.8025 168.696 10.862C168.558 10.8864 168.417 10.8671 168.291 10.8068C168.15 10.7326 168.038 10.6138 167.973 10.4692L167.578 9.35938ZM167.255 8.25898L166.293 5.47167L165.308 8.25898H167.255Z" fill="white"/>
<path d="M53.0032 14.899C53.8137 13.0775 56.5654 13.1502 57.3354 14.9689C59.748 20.066 61.5757 25.4267 63.8789 30.5736C65.3175 30.8601 67.822 30.9449 67.6436 33.0286C67.9138 34.5474 66.4144 35.8536 64.942 35.6236C58.4579 35.6626 51.9658 35.7325 45.4777 35.6316C43.5865 35.8415 42.2573 33.8573 42.8571 32.1529C43.5487 30.7363 45.2602 30.9301 46.5435 30.5803C48.8251 25.4106 50.592 20.0122 53.0032 14.899ZM51.8928 30.8184C54.0947 30.8103 56.2961 30.8103 58.4971 30.8184C57.4317 28.0069 56.3583 25.1976 55.2767 22.3906C53.9758 25.1241 52.9411 27.9759 51.8928 30.8184Z" fill="#E6514A"/>
<path d="M69.1836 15.5838C69.2295 14.3462 70.2778 13.3938 71.4395 13.4422C71.9731 13.4747 72.4767 13.6989 72.8568 14.0732C73.2369 14.4476 73.4677 14.9466 73.5063 15.4775C73.4955 19.5572 73.4838 23.6377 73.4712 27.7191C75.5965 25.2493 77.729 22.7288 79.8688 20.1576C81.3727 18.346 82.8541 16.5434 84.313 14.7498C84.5497 14.4255 84.8562 14.158 85.21 13.9668C85.9273 13.5808 86.9593 13.457 87.6078 13.9023C88.3858 14.4404 88.4372 15.5986 88.4534 16.1219C88.5277 18.5151 88.5425 25.1094 88.4291 33.9784C88.0454 35.1676 86.8959 35.9156 85.7274 35.7864C85.2213 35.7211 84.7463 35.507 84.363 35.1716C83.9797 34.8361 83.7055 34.3945 83.5755 33.9031C83.5269 30.3544 83.4787 26.8052 83.4309 23.2556L77.4237 29.6535C75.7906 31.514 74.36 33.0637 73.2091 34.3026C72.9471 34.5851 72.2176 35.3371 71.2274 35.5134C70.9978 35.5551 70.2548 35.6869 69.7091 35.2726C69.6532 35.2335 69.5999 35.1908 69.5497 35.1448C69.1188 34.7412 69.0891 34.156 69.0755 33.9179C69.0364 33.2063 69.0661 25.7699 69.1836 15.5838Z" fill="#E6514A"/>
<path d="M96.1545 16.0682C96.8543 14.2642 98.6752 12.5908 100.747 13.2876C103.044 14.3019 103.584 16.9749 104.473 19.0721C106.068 23.7589 108.255 28.26 109.506 33.0624C110.011 34.9538 107.75 36.2627 106.129 35.5726C104.635 34.6202 104.449 32.7221 103.818 31.2195C101.103 31.2114 98.3956 31.2195 95.6885 31.1966C95.1833 32.4436 94.8023 33.7687 94.0675 34.9068C93.0327 36.1847 90.7147 36.03 89.9677 34.5274C89.7259 32.3575 90.7606 30.3437 91.4685 28.3609C93.0935 24.2808 94.4444 20.1052 96.1545 16.0682ZM96.9866 26.6578C98.7995 26.6578 100.615 26.6551 102.432 26.6497C101.486 23.9391 100.651 21.1962 99.8112 18.4533C98.7914 21.1585 97.9133 23.9082 96.9866 26.6578Z" fill="#E6514A"/>
<path d="M117.04 17.0514C117.395 16.0021 118.272 13.4112 119.854 13.2081C120.133 13.177 120.416 13.2101 120.68 13.305C122.472 13.8834 123.198 16.3627 123.328 16.8281L129.784 33.0502C129.886 33.6007 129.793 34.1696 129.518 34.6584C129.244 35.1472 128.807 35.525 128.282 35.7264C127.757 35.9278 127.179 35.9401 126.646 35.7611C126.113 35.5822 125.66 35.2232 125.365 34.7465L120.34 22.3704L116.017 33.9138C115.673 35.0344 114.802 35.8402 113.782 35.9599C113.588 35.9828 112.392 36.0945 111.741 35.1864C111.15 34.3578 111.499 33.3731 111.534 33.2762C113.968 25.9676 115.923 20.3203 117.04 17.0514Z" fill="#E6514A"/>
<path d="M137.525 14.0315C141.5 12.5975 146.463 13.0549 149.583 16.0991C153.278 19.7487 153.542 25.7848 151.653 30.3585C148.41 37.8501 136.118 38.0358 132.453 30.8321C129.591 25.1552 130.982 16.4798 137.525 14.0315ZM139.128 18.5865C135.938 20.9029 135.65 25.7162 137.4 28.9985C139.049 32.1827 144.138 32.4383 146.129 29.4868C147.973 26.7439 147.973 22.9087 146.284 20.0891C144.883 17.7107 141.383 17.1296 139.128 18.5865Z" fill="#E6514A"/>
<path d="M156.202 14.1082L167.536 13.9736C168.672 14.3072 169.434 15.3189 169.415 16.3574C169.392 17.6421 168.199 18.7976 166.691 18.7465L159.205 18.76L159.112 33.8265C159.045 34.4166 158.763 34.9617 158.318 35.3581C157.874 35.7544 157.3 35.9745 156.703 35.9763C156.107 35.9781 155.531 35.7616 155.084 35.368C154.637 34.9744 154.352 34.431 154.281 33.8413C154.24 28.6738 154.198 23.5068 154.157 18.3402C154.122 18.1506 153.736 15.8126 155.217 14.622C155.508 14.3869 155.843 14.2121 156.202 14.1082Z" fill="#E6514A"/>
<path d="M25.392 14.3946C29.2685 14.3946 32.411 11.2652 32.411 7.40484C32.411 3.54448 29.2685 0.415039 25.392 0.415039C21.5156 0.415039 18.3731 3.54448 18.3731 7.40484C18.3731 11.2652 21.5156 14.3946 25.392 14.3946Z" stroke="white" stroke-width="0.83" stroke-miterlimit="10"/>
<path d="M28.8583 9.5332C27.9242 10.3364 26.7371 10.7883 25.5032 10.8104C24.2693 10.8325 23.0666 10.4235 22.1041 9.65427" stroke="white" stroke-width="0.83" stroke-miterlimit="10" stroke-linecap="round"/>
<path d="M22.8014 5.54248C22.9605 5.54265 23.0854 5.67043 23.0856 5.82373C23.0856 5.97718 22.9606 6.10579 22.8014 6.10596C22.6422 6.10596 22.5163 5.97728 22.5163 5.82373C22.5165 5.67033 22.6423 5.54248 22.8014 5.54248Z" fill="white" stroke="white"/>
<path d="M28.3156 5.54248C28.4746 5.54265 28.5996 5.67043 28.5998 5.82373C28.5998 5.97718 28.4747 6.10579 28.3156 6.10596C28.1563 6.10596 28.0304 5.97728 28.0304 5.82373C28.0306 5.67033 28.1564 5.54248 28.3156 5.54248Z" fill="white" stroke="white"/>
<path d="M10.1073 17.7281C13.9838 17.7281 17.1263 14.5987 17.1263 10.7383C17.1263 6.87798 13.9838 3.74854 10.1073 3.74854C6.23082 3.74854 3.08832 6.87798 3.08832 10.7383C3.08832 14.5987 6.23082 17.7281 10.1073 17.7281Z" stroke="white" stroke-width="0.83" stroke-miterlimit="10"/>
<path d="M13.5749 12.8677C12.6403 13.6699 11.4532 14.1211 10.2195 14.143C8.98583 14.1649 7.78337 13.756 6.82069 12.9874" stroke="white" stroke-width="0.83" stroke-miterlimit="10" stroke-linecap="round"/>
<path d="M7.51668 8.87598C7.67569 8.87615 7.80068 9.00392 7.80086 9.15723C7.80086 9.31068 7.6758 9.43928 7.51668 9.43945C7.3574 9.43945 7.23152 9.31078 7.23152 9.15723C7.2317 9.00382 7.35752 8.87598 7.51668 8.87598Z" fill="white" stroke="white"/>
<path d="M13.0308 8.87598C13.1898 8.87615 13.3148 9.00392 13.315 9.15723C13.315 9.31067 13.1899 9.43928 13.0308 9.43945C12.8715 9.43945 12.7457 9.31078 12.7457 9.15723C12.7458 9.00382 12.8717 8.87598 13.0308 8.87598Z" fill="white" stroke="white"/>
<path d="M35.0857 26.6454C35.0857 21.1058 30.3361 16.3881 29.5229 15.3213C28.4423 16.6571 26.3471 16.9356 25.3921 16.9867C24.437 16.9315 22.3419 16.6571 21.2625 15.3213C20.452 16.3881 15.6998 21.1058 15.6998 26.6454C15.6998 30.6717 18.0813 35.0517 24.8949 35.4392V35.4701C25.0651 35.4701 25.2286 35.4701 25.3921 35.4607C25.5555 35.4513 25.7203 35.4701 25.8892 35.4701V35.4392C32.7109 35.0517 35.0857 30.6717 35.0857 26.6454Z" fill="white"/>
<path d="M35.0857 26.6941C35.0857 24.8699 34.7682 23.7238 34.0482 22.1781C32.5812 19.0316 17.9732 19.333 16.5062 22.2535C15.6741 23.9081 15.6957 24.6897 15.6957 26.6927C15.6957 30.719 18.0772 35.0977 24.8909 35.4865V35.5174C25.0611 35.5174 25.2245 35.5174 25.388 35.508C25.5514 35.4986 25.7162 35.5174 25.8851 35.5174V35.4865C32.7109 35.099 35.0857 30.7203 35.0857 26.6941Z" fill="#3035C4"/>
<path d="M15.7511 27.723C16.7548 30.9878 18.6595 35.1325 24.8949 35.4876V35.5186C25.0651 35.5186 25.2286 35.5186 25.3921 35.5091C25.5555 35.4997 25.7203 35.5186 25.8892 35.5186V35.4876C32.1219 35.1325 34.9817 30.4322 35.033 28.3176C32.9446 25.7347 20.4345 25.7347 15.7511 27.723Z" fill="#E6514A"/>
<path opacity="0.33" d="M25.4758 33.1012C21.3287 32.6869 18.265 29.3911 18.6338 25.7415C17.8584 25.607 17.5328 26.2137 17.1276 26.3455C16.7588 29.9951 19.8293 33.2909 23.9696 33.7053C25.5755 33.8755 27.196 33.5689 28.6273 32.8241C27.6041 33.1153 26.5344 33.2093 25.4758 33.1012Z" fill="white"/>
<path d="M35.0857 26.6454C35.0857 21.1058 30.3361 16.3881 29.5229 15.3213C28.4423 16.6571 26.3471 16.9356 25.3921 16.9867C24.437 16.9315 22.3419 16.6571 21.2625 15.3213C20.452 16.3881 15.6998 21.1058 15.6998 26.6454C15.6998 30.6717 18.0813 35.0517 24.8949 35.4392V35.4701C25.0651 35.4701 25.2286 35.4701 25.3921 35.4607C25.5555 35.4513 25.7203 35.4701 25.8892 35.4701V35.4392C32.7109 35.0517 35.0857 30.6717 35.0857 26.6454Z" stroke="white" stroke-width="0.83" stroke-linejoin="round"/>
<path d="M19.8009 29.5917C19.8009 24.0521 15.0514 19.3343 14.2382 18.2676C13.1575 19.6034 11.0623 19.8819 10.1073 19.9316C9.15223 19.8778 7.05708 19.6034 5.97776 18.2676C5.16725 19.3343 0.414993 24.0521 0.414993 29.5917C0.414993 33.6166 2.79653 37.9967 9.61152 38.3841V38.4151C9.78038 38.4151 9.94383 38.4151 10.1073 38.4056C10.2707 38.3962 10.4355 38.4151 10.6044 38.4151V38.3841C17.4194 37.9967 19.8009 33.6166 19.8009 29.5917Z" fill="#E6514A" stroke="white" stroke-width="0.83" stroke-linejoin="round"/>
<path fill-rule="evenodd" clip-rule="evenodd" d="M10.4139 27.7285L11.0367 28.5545L12.0174 28.2209L11.4203 29.0657L12.043 29.8916L11.0515 29.5876L10.4545 30.4324L10.4396 29.3993L9.44807 29.0953L10.4301 28.7616L10.4139 27.7285Z" fill="white"/>
<path d="M9.52912 32.8931C8.53242 32.8931 7.57655 32.4988 6.87178 31.797C6.16701 31.0951 5.77108 30.1432 5.77108 29.1507C5.77108 28.1581 6.16701 27.2062 6.87178 26.5044C7.57655 25.8025 8.53242 25.4082 9.52912 25.4082C9.93768 25.4085 10.3434 25.4757 10.73 25.6073C10.0257 25.1591 9.20765 24.9199 8.37176 24.918C7.53587 24.916 6.71672 25.1513 6.01028 25.5963C5.30384 26.0413 4.73935 26.6775 4.38294 27.4305C4.02653 28.1834 3.89296 29.0219 3.99787 29.8478C4.10279 30.6736 4.44184 31.4526 4.97532 32.0934C5.50879 32.7343 6.2146 33.2105 7.01007 33.4662C7.80553 33.722 8.65771 33.7467 9.46678 33.5375C10.2758 33.3283 11.0083 32.8939 11.5783 32.285C10.969 32.6816 10.257 32.8928 9.52912 32.8931Z" fill="white"/>
</svg>
