<svg width="170" height="39" viewBox="0 0 170 39" fill="none" xmlns="http://www.w3.org/2000/svg">
<path d="M44.8482 7.56219L44.1728 8.26978V10.3603C44.1748 10.4309 44.1622 10.5011 44.1357 10.5666C44.1092 10.6321 44.0694 10.6915 44.0188 10.741C43.9679 10.7934 43.9067 10.835 43.8392 10.8633C43.7716 10.8915 43.699 10.9057 43.6257 10.9051C43.5548 10.9046 43.4847 10.8899 43.4197 10.8616C43.3547 10.8334 43.2961 10.7924 43.2474 10.741C43.197 10.6914 43.1574 10.632 43.1311 10.5665C43.1049 10.501 43.0925 10.4308 43.0948 10.3603V3.76865C43.0991 3.627 43.1531 3.49132 43.2474 3.38526C43.3528 3.29116 43.4883 3.2373 43.6297 3.23325C43.7724 3.23728 43.9092 3.29108 44.0161 3.38526C44.1129 3.49364 44.1676 3.633 44.1701 3.77806V6.72411L47.1987 3.49557C47.2398 3.43935 47.2921 3.3921 47.3523 3.35671C47.4124 3.32132 47.4792 3.29853 47.5485 3.28975C47.62 3.27737 47.6933 3.28072 47.7633 3.29954C47.8333 3.31836 47.8983 3.35221 47.9538 3.39871C48.0104 3.4397 48.058 3.49173 48.0937 3.55163C48.1295 3.61152 48.1527 3.67804 48.1618 3.74712C48.1739 3.81827 48.1703 3.89117 48.1514 3.96083C48.1326 4.03049 48.0988 4.09526 48.0524 4.15069L45.602 6.77927L48.0835 10.0226C48.133 10.0745 48.1708 10.1365 48.1941 10.2043C48.2174 10.2721 48.2257 10.3441 48.2185 10.4154C48.1994 10.5613 48.1232 10.6938 48.0065 10.784C47.9108 10.861 47.7917 10.9033 47.6687 10.9037C47.5889 10.9051 47.5098 10.8881 47.4376 10.854C47.3655 10.82 47.3022 10.7698 47.2527 10.7073L44.8482 7.56219Z" fill="#23283B"/>
<path d="M51.5605 7.94424L49.3411 10.6656C49.2912 10.7294 49.2275 10.7811 49.1548 10.817C49.0821 10.8528 49.0022 10.8719 48.921 10.8728C48.8011 10.8713 48.6853 10.829 48.5928 10.7531C48.5355 10.7124 48.4871 10.6605 48.4507 10.6006C48.4142 10.5407 48.3904 10.474 48.3807 10.4047C48.3682 10.3335 48.3715 10.2605 48.3904 10.1908C48.4093 10.121 48.4433 10.0563 48.4901 10.0011L50.873 7.06177L48.5158 4.14397C48.4695 4.08849 48.4357 4.02372 48.4168 3.95407C48.398 3.88443 48.3944 3.81155 48.4063 3.7404C48.4116 3.66997 48.4326 3.60158 48.4676 3.54017C48.5026 3.47876 48.5509 3.42585 48.609 3.38526C48.6626 3.33975 48.7256 3.30642 48.7934 3.2876C48.8613 3.26879 48.9325 3.26493 49.0021 3.2763C49.1444 3.29695 49.2735 3.37107 49.3627 3.48346L51.5605 6.18334L53.7138 3.47943C53.803 3.36704 53.9321 3.29291 54.0745 3.27226C54.1442 3.26096 54.2156 3.26485 54.2837 3.28367C54.3518 3.30248 54.415 3.33576 54.4689 3.38123C54.5281 3.42196 54.5773 3.47535 54.6131 3.5375C54.6489 3.59965 54.6702 3.66897 54.6756 3.7404C54.6878 3.81155 54.6844 3.88449 54.6655 3.95418C54.6466 4.02387 54.6127 4.08863 54.5662 4.14397L52.2495 7.06177L51.5605 7.94424Z" fill="#23283B"/>
<path d="M58.1418 3.26148C58.4251 3.26521 58.7047 3.32574 58.9639 3.43946C59.2232 3.55317 59.4568 3.71774 59.6507 3.92333C60.0438 4.31713 60.267 4.84807 60.2731 5.40325C60.2791 5.95844 60.0675 6.49408 59.6831 6.89629C59.2887 7.30991 58.7558 7.56544 58.1851 7.61464C58.1788 7.62092 57.5556 7.6245 56.3155 7.6254V10.3159C56.3173 10.3873 56.3036 10.4582 56.2754 10.5239C56.2472 10.5896 56.2051 10.6485 56.1521 10.6966C56.1029 10.7483 56.0436 10.7896 55.9779 10.8178C55.9121 10.846 55.8413 10.8606 55.7698 10.8607C55.6269 10.8573 55.4907 10.7998 55.389 10.6998C55.2873 10.5997 55.2278 10.4648 55.2227 10.3226V3.8063C55.2219 3.73343 55.236 3.66115 55.2641 3.59386C55.2922 3.52657 55.3337 3.46566 55.3861 3.41484C55.4361 3.36445 55.4959 3.32484 55.5619 3.29846C55.6279 3.27207 55.6987 3.25949 55.7698 3.26148H58.1418ZM58.054 6.53846C58.2026 6.54135 58.3502 6.51369 58.4876 6.45722C58.6249 6.40074 58.7491 6.31666 58.8524 6.21022C59.0601 6.00184 59.18 5.7222 59.1874 5.42864C59.1781 5.13706 59.0567 4.86017 58.8483 4.65514C58.743 4.55307 58.6179 4.47346 58.4806 4.42119C58.3434 4.36891 58.1968 4.34507 58.05 4.35112H56.3155V6.53846H58.054Z" fill="#23283B"/>
<path d="M67.4667 5.91833C67.3426 5.98525 67.1972 6.00119 67.0614 5.96272C66.9952 5.94793 66.933 5.91866 66.8795 5.87701C66.826 5.83536 66.7825 5.78239 66.7521 5.72192C66.2064 4.81524 65.4229 4.3619 64.4016 4.3619C63.6774 4.36679 62.984 4.65474 62.4709 5.16374C61.9577 5.67274 61.6659 6.36208 61.6581 7.08329C61.6524 7.43952 61.7216 7.79299 61.8612 8.12103C62.0007 8.44906 62.2076 8.74442 62.4686 8.98814C62.7231 9.23877 63.0253 9.43628 63.3575 9.56911C63.6896 9.70193 64.0451 9.76739 64.403 9.76164C64.8508 9.76355 65.2919 9.65248 65.6849 9.43879C66.087 9.21965 66.4289 8.90553 66.6805 8.52403C66.7128 8.45845 66.7609 8.40187 66.8206 8.35938C66.8802 8.31688 66.9495 8.28979 67.0223 8.28055C67.09 8.26446 67.1608 8.26604 67.2278 8.28513C67.2947 8.30421 67.3556 8.34016 67.4045 8.38951C67.4699 8.41951 67.528 8.46333 67.5746 8.51792C67.6213 8.57252 67.6554 8.63657 67.6747 8.70564C67.6982 8.77377 67.7035 8.84682 67.69 8.91759C67.6765 8.98837 67.6447 9.05441 67.5977 9.10921C67.2548 9.64915 66.7816 10.095 66.2212 10.406C65.6642 10.7188 65.0343 10.8802 64.3949 10.8741C63.8911 10.8804 63.3913 10.7852 62.9254 10.5942C62.4595 10.4033 62.0372 10.1205 61.6837 9.76299C61.316 9.42038 61.0241 9.00505 60.8268 8.54361C60.6296 8.08216 60.5313 7.58477 60.5382 7.08329C60.5302 6.57527 60.6282 6.07112 60.8258 5.6027C61.0234 5.13428 61.3165 4.71178 61.6864 4.3619C62.283 3.77254 63.057 3.39391 63.89 3.28387C64.723 3.17383 65.5693 3.33842 66.2996 3.75251C66.8772 4.07416 67.3506 4.55349 67.6639 5.13406C67.7089 5.20238 67.739 5.27935 67.7523 5.35999C67.7656 5.44063 67.7617 5.52314 67.7409 5.6022C67.7213 5.67169 67.6865 5.73603 67.6391 5.79066C67.5917 5.84529 67.5329 5.88887 67.4667 5.91833Z" fill="#23283B"/>
<path d="M69.031 10.862C68.9592 10.8646 68.8877 10.8523 68.821 10.8259C68.7542 10.7995 68.6937 10.7596 68.6433 10.7087C68.5908 10.6578 68.5493 10.5969 68.5212 10.5296C68.4931 10.4623 68.479 10.3901 68.4798 10.3172V3.8063C68.4765 3.73468 68.4895 3.66325 68.5178 3.59733C68.5461 3.53141 68.589 3.47271 68.6433 3.4256C68.6917 3.37252 68.751 3.33041 68.8172 3.3021C68.8834 3.27379 68.9549 3.25994 69.0269 3.26148C69.0985 3.26154 69.1693 3.27612 69.235 3.30434C69.3008 3.33256 69.36 3.37382 69.4092 3.4256C69.4635 3.47271 69.5063 3.53141 69.5347 3.59733C69.563 3.66325 69.5759 3.73468 69.5727 3.8063V6.49675C70.8127 6.49675 71.4359 6.50034 71.4422 6.50752C72.0129 6.55672 72.5458 6.81224 72.9403 7.22587C73.3251 7.61863 73.5374 8.14753 73.5306 8.6962C73.5236 9.26119 73.2982 9.80174 72.9011 10.2054C72.5041 10.609 71.9661 10.8447 71.399 10.8634L69.031 10.862ZM69.5713 7.5837V9.77238H71.3098C71.4567 9.77843 71.6032 9.75459 71.7405 9.70231C71.8777 9.65004 72.0029 9.57043 72.1082 9.46836C72.3166 9.26333 72.438 8.98644 72.4472 8.69486C72.4395 8.39979 72.3181 8.119 72.1082 7.91059C72.0048 7.8044 71.8806 7.72056 71.7432 7.66432C71.6059 7.60807 71.4583 7.58063 71.3098 7.5837H69.5713ZM73.8683 3.76325C73.8683 3.62054 73.9253 3.48367 74.0266 3.38276C74.1279 3.28185 74.2654 3.22516 74.4087 3.22516C74.5554 3.22879 74.6957 3.28572 74.8031 3.38524C74.8975 3.49077 74.9515 3.62603 74.9558 3.76729V10.3387C74.9577 10.4092 74.9451 10.4793 74.9189 10.5448C74.8926 10.6102 74.8532 10.6697 74.8031 10.7194C74.7539 10.7712 74.6947 10.8125 74.6289 10.8407C74.5632 10.8689 74.4924 10.8835 74.4208 10.8835C74.2791 10.8785 74.1446 10.8202 74.0443 10.7204C73.9441 10.6205 73.8855 10.4866 73.8805 10.3455L73.8683 3.76325Z" fill="#23283B"/>
<path d="M83.6147 3.23997C83.7564 3.24417 83.8919 3.29855 83.9969 3.39333C84.0948 3.50216 84.1496 3.64274 84.1509 3.78883C84.1467 3.92993 84.0921 4.06492 83.9969 4.16953C83.8918 4.26393 83.7562 4.31783 83.6147 4.32154H81.9531V10.3387C81.9551 10.4093 81.9424 10.4796 81.9159 10.5451C81.8895 10.6106 81.8497 10.6699 81.7991 10.7194C81.7501 10.7715 81.6909 10.8129 81.6251 10.8411C81.5594 10.8694 81.4885 10.8838 81.4168 10.8836C81.2751 10.8785 81.1406 10.8202 81.0403 10.7204C80.9401 10.6206 80.8815 10.4866 80.8765 10.3455V4.3175H79.219C79.1482 4.31956 79.0778 4.30714 79.012 4.28099C78.9463 4.25484 78.8866 4.21553 78.8367 4.16549C78.7853 4.11701 78.7443 4.05862 78.7162 3.99387C78.6881 3.92912 78.6735 3.85936 78.6733 3.78883C78.6725 3.71596 78.6866 3.64368 78.7147 3.57639C78.7428 3.5091 78.7843 3.44819 78.8367 3.39737C78.8866 3.34715 78.9462 3.30763 79.0119 3.28126C79.0777 3.25488 79.1482 3.2422 79.219 3.24401L83.6147 3.23997Z" fill="#23283B"/>
<path d="M87.5172 7.94424L85.2978 10.6656C85.2473 10.7301 85.1828 10.7822 85.1091 10.8181C85.0353 10.854 84.9544 10.8727 84.8723 10.8728C84.7523 10.8717 84.6364 10.8294 84.544 10.7531C84.4874 10.7122 84.4396 10.6602 84.4039 10.6003C84.3681 10.5404 84.345 10.4738 84.336 10.4047C84.3241 10.3335 84.3278 10.2607 84.3466 10.191C84.3655 10.1214 84.3992 10.0566 84.4454 10.0011L86.8283 7.06177L84.4671 4.14397C84.4208 4.08849 84.387 4.02372 84.3681 3.95408C84.3492 3.88443 84.3457 3.81155 84.3576 3.74041C84.3752 3.59903 84.4483 3.47035 84.561 3.38259C84.6737 3.29484 84.8167 3.25516 84.9588 3.27227C85.1011 3.29291 85.2302 3.36704 85.3194 3.47943L87.5172 6.1793L89.6718 3.47943C89.7611 3.36704 89.8901 3.29291 90.0325 3.27227C90.1745 3.25516 90.3176 3.29484 90.4302 3.38259C90.5429 3.47035 90.6161 3.59903 90.6336 3.74041C90.6456 3.81155 90.642 3.88443 90.6231 3.95408C90.6043 4.02372 90.5705 4.08849 90.5242 4.14397L88.2062 7.06177L87.5172 7.94424Z" fill="#23283B"/>
<path d="M94.0986 3.26149C94.3818 3.26522 94.6614 3.32575 94.9207 3.43947C95.1799 3.55318 95.4135 3.71775 95.6075 3.92334C95.8079 4.11887 95.9664 4.35284 96.0734 4.61111C96.1805 4.86938 96.2338 5.14658 96.2302 5.42596C96.2339 5.69768 96.1836 5.96744 96.0823 6.21976C95.981 6.47208 95.8306 6.70199 95.6399 6.8963C95.2457 7.30963 94.7134 7.56513 94.1431 7.61465C94.135 7.62093 93.5118 7.62451 92.2736 7.62541V10.3159C92.2751 10.3874 92.2612 10.4584 92.2327 10.5241C92.2043 10.5897 92.162 10.6486 92.1088 10.6966C92.0597 10.7485 92.0004 10.7898 91.9347 10.818C91.8689 10.8463 91.7981 10.8608 91.7265 10.8607C91.585 10.855 91.4508 10.7965 91.3507 10.6968C91.2505 10.5971 91.1918 10.4635 91.1861 10.3226V3.80631C91.1855 3.73334 91.1998 3.66101 91.2281 3.59371C91.2565 3.52641 91.2982 3.46556 91.3509 3.41485C91.4007 3.3645 91.4603 3.3249 91.526 3.29851C91.5918 3.27213 91.6623 3.25952 91.7332 3.26149H94.0986ZM94.0121 6.53847C94.1605 6.54117 94.3078 6.51343 94.4449 6.45696C94.582 6.40049 94.706 6.3165 94.8091 6.21023C95.0195 6.00214 95.1409 5.72115 95.1482 5.42596C95.1396 5.13423 95.0181 4.85709 94.8091 4.65246C94.7039 4.55055 94.579 4.47104 94.442 4.41878C94.305 4.36651 94.1587 4.34257 94.0121 4.34844H92.2736V6.53847H94.0121Z" fill="#23283B"/>
<path d="M100.928 9.77239C101.07 9.77659 101.206 9.83096 101.311 9.92575C101.363 9.97658 101.405 10.0375 101.433 10.1048C101.461 10.1721 101.475 10.2443 101.474 10.3172C101.476 10.3886 101.462 10.4596 101.434 10.5253C101.406 10.591 101.364 10.6499 101.311 10.6979C101.262 10.7497 101.202 10.7909 101.137 10.8192C101.071 10.8474 101 10.862 100.928 10.862H97.1163C96.9748 10.8564 96.8407 10.7979 96.7405 10.6982C96.6404 10.5985 96.5816 10.4648 96.576 10.3239V3.80631C96.5754 3.73334 96.5897 3.66101 96.618 3.59371C96.6463 3.52641 96.6881 3.46556 96.7408 3.41485C96.7905 3.3645 96.8501 3.3249 96.9159 3.29851C96.9817 3.27213 97.0522 3.25952 97.1231 3.26149H100.928C101.07 3.26569 101.206 3.32006 101.311 3.41485C101.363 3.46567 101.405 3.52658 101.433 3.59387C101.461 3.66116 101.475 3.73344 101.474 3.80631C101.477 3.87832 101.465 3.95013 101.437 4.01679C101.41 4.08345 101.368 4.14337 101.315 4.19239C101.265 4.24369 101.204 4.28424 101.138 4.31154C101.072 4.33884 101 4.35231 100.928 4.35113H97.6594V6.53847H100.152C100.293 6.54266 100.429 6.59704 100.534 6.69182C100.587 6.74253 100.628 6.80339 100.657 6.87069C100.685 6.93798 100.699 7.01031 100.699 7.08328C100.7 7.15479 100.686 7.2258 100.658 7.29148C100.629 7.35716 100.587 7.41599 100.534 7.46398C100.485 7.51589 100.426 7.55723 100.36 7.58546C100.294 7.61369 100.223 7.6282 100.152 7.6281H97.6634V9.77239H100.928Z" fill="#23283B"/>
<path d="M107.699 10.8728H102.684C102.613 10.8742 102.541 10.8603 102.475 10.832C102.41 10.8037 102.35 10.7616 102.302 10.7087C102.25 10.6597 102.209 10.6007 102.181 10.5352C102.153 10.4697 102.138 10.3992 102.139 10.328V3.81707C102.136 3.74547 102.149 3.67407 102.177 3.60817C102.205 3.54226 102.248 3.48355 102.302 3.43637C102.35 3.3834 102.41 3.34135 102.475 3.31304C102.541 3.28473 102.613 3.27082 102.684 3.27226C102.756 3.27213 102.827 3.28663 102.893 3.31485C102.959 3.34307 103.019 3.38443 103.068 3.43637C103.121 3.48419 103.163 3.54319 103.19 3.60906C103.217 3.67493 103.229 3.746 103.225 3.81707V9.78316H106.602V3.81707C106.599 3.74547 106.612 3.67407 106.64 3.60817C106.668 3.54226 106.711 3.48355 106.765 3.43637C106.814 3.3833 106.873 3.34119 106.939 3.31288C107.006 3.28457 107.077 3.27072 107.149 3.27226C107.221 3.27232 107.291 3.2869 107.357 3.31512C107.423 3.34333 107.482 3.38459 107.531 3.43637C107.586 3.48355 107.628 3.54226 107.657 3.60817C107.685 3.67407 107.698 3.74547 107.695 3.81707V9.78316H108.253C108.398 9.78575 108.537 9.84017 108.646 9.93651C108.741 10.041 108.796 10.1761 108.8 10.3172V12.1023C108.802 12.1729 108.789 12.2432 108.763 12.3087C108.736 12.3742 108.696 12.4335 108.646 12.483C108.542 12.5873 108.4 12.6463 108.253 12.6471C108.179 12.6478 108.107 12.6335 108.039 12.6053C107.972 12.5771 107.91 12.5355 107.86 12.483C107.806 12.435 107.764 12.3762 107.736 12.3105C107.707 12.2448 107.693 12.1738 107.695 12.1023L107.699 10.8728Z" fill="#23283B"/>
<path d="M111.11 7.56219L110.434 8.26978V10.3603C110.436 10.4309 110.424 10.5011 110.397 10.5666C110.371 10.6321 110.331 10.6915 110.28 10.741C110.229 10.7934 110.168 10.835 110.101 10.8633C110.033 10.8915 109.96 10.9057 109.887 10.9051C109.816 10.9052 109.745 10.8907 109.679 10.8624C109.613 10.8342 109.554 10.7929 109.505 10.741C109.454 10.6915 109.414 10.6321 109.388 10.5666C109.361 10.5011 109.349 10.4309 109.351 10.3603V3.76865C109.355 3.62702 109.409 3.49138 109.504 3.38526C109.609 3.29116 109.744 3.2373 109.886 3.23325C110.031 3.23617 110.17 3.29001 110.279 3.38526C110.376 3.49364 110.43 3.633 110.433 3.77806V6.72411L113.46 3.49557C113.501 3.43952 113.554 3.39239 113.614 3.35702C113.674 3.32164 113.741 3.29876 113.81 3.28975C113.881 3.27756 113.955 3.28099 114.025 3.29981C114.095 3.31862 114.16 3.35237 114.215 3.39871C114.272 3.43987 114.319 3.49194 114.355 3.55181C114.391 3.61167 114.414 3.6781 114.423 3.74712C114.435 3.81827 114.432 3.89117 114.413 3.96083C114.394 4.03049 114.36 4.09526 114.314 4.15069L111.87 6.77927L114.352 10.0226C114.401 10.0745 114.439 10.1365 114.462 10.2043C114.486 10.2721 114.494 10.3441 114.487 10.4154C114.477 10.4881 114.452 10.558 114.415 10.6213C114.378 10.6845 114.328 10.7398 114.269 10.784C114.173 10.8613 114.054 10.9036 113.93 10.9037C113.851 10.905 113.772 10.8879 113.7 10.8539C113.628 10.8198 113.565 10.7697 113.516 10.7073L111.11 7.56219Z" fill="#23283B"/>
<path d="M118.534 10.862C118.033 10.8695 117.536 10.7727 117.074 10.5776C116.613 10.3826 116.198 10.0936 115.855 9.72935C115.499 9.37589 115.218 8.95479 115.028 8.49102C114.838 8.02725 114.744 7.53025 114.75 7.02948C114.746 6.53552 114.842 6.04584 115.032 5.58946C115.222 5.13308 115.502 4.7193 115.855 4.37266C116.206 4.02055 116.623 3.74107 117.083 3.55035C117.542 3.35962 118.035 3.26143 118.533 3.26143C119.031 3.26143 119.524 3.35962 119.984 3.55035C120.443 3.74107 120.861 4.02055 121.211 4.37266C121.565 4.7193 121.845 5.13308 122.034 5.58946C122.224 6.04584 122.32 6.53552 122.316 7.02948C122.323 7.53025 122.229 8.02725 122.039 8.49102C121.849 8.95479 121.568 9.37589 121.211 9.72935C120.869 10.0936 120.454 10.3825 119.993 10.5776C119.532 10.7726 119.035 10.8695 118.534 10.862ZM118.534 4.3175C117.812 4.31821 117.12 4.60417 116.609 5.11261C116.098 5.62105 115.811 6.31044 115.811 7.02948C115.802 7.39484 115.868 7.75816 116.005 8.09708C116.142 8.43601 116.348 8.74337 116.609 9.00024C116.86 9.25424 117.16 9.45595 117.49 9.59362C117.821 9.7313 118.175 9.8022 118.533 9.8022C118.891 9.8022 119.246 9.7313 119.576 9.59362C119.907 9.45595 120.206 9.25424 120.458 9.00024C120.717 8.74174 120.923 8.43435 121.062 8.096C121.201 7.75765 121.271 7.3951 121.268 7.02948C121.271 6.67179 121.201 6.31718 121.062 5.9875C120.923 5.65782 120.717 5.36005 120.458 5.11253C120.208 4.85619 119.909 4.6534 119.578 4.51666C119.248 4.37992 118.892 4.31214 118.534 4.3175Z" fill="#23283B"/>
<path d="M124.01 4.36189V10.328C124.011 10.4008 123.997 10.4731 123.969 10.5404C123.941 10.6077 123.899 10.6686 123.847 10.7194C123.742 10.8142 123.606 10.8686 123.464 10.8728C123.394 10.8746 123.323 10.8619 123.257 10.8355C123.192 10.8092 123.132 10.7697 123.082 10.7194C123.03 10.6686 122.988 10.6077 122.96 10.5404C122.932 10.4731 122.918 10.4008 122.919 10.328V3.81707C122.916 3.74547 122.929 3.67407 122.957 3.60817C122.985 3.54226 123.028 3.48355 123.082 3.43637C123.131 3.3833 123.19 3.34119 123.256 3.31288C123.322 3.28457 123.394 3.27072 123.466 3.27226H127.27C127.341 3.27216 127.412 3.28667 127.478 3.3149C127.544 3.34312 127.603 3.38447 127.652 3.43637C127.705 3.48412 127.747 3.54307 127.774 3.60894C127.802 3.6748 127.814 3.7459 127.81 3.81707C127.811 3.89027 127.797 3.96286 127.768 4.0304C127.74 4.09794 127.698 4.15901 127.645 4.20988C127.542 4.30251 127.409 4.35627 127.27 4.36189H124.01Z" fill="#23283B"/>
<path d="M131.871 10.862C131.37 10.8696 130.872 10.7727 130.411 10.5776C129.95 10.3826 129.535 10.0936 129.192 9.72936C128.836 9.37583 128.555 8.95469 128.365 8.49092C128.176 8.02714 128.081 7.53017 128.088 7.02949C128.084 6.53561 128.18 6.04596 128.37 5.58958C128.559 5.1332 128.839 4.71938 129.192 4.37266C129.543 4.02051 129.96 3.74101 130.42 3.55027C130.88 3.35953 131.373 3.26132 131.871 3.26132C132.369 3.26132 132.862 3.35953 133.322 3.55027C133.781 3.74101 134.199 4.02051 134.549 4.37266C134.903 4.71931 135.183 5.13309 135.373 5.58947C135.562 6.04584 135.658 6.53553 135.654 7.02949C135.661 7.53026 135.567 8.02726 135.377 8.49103C135.187 8.9548 134.906 9.3759 134.549 9.72936C134.207 10.0936 133.792 10.3826 133.33 10.5776C132.869 10.7727 132.372 10.8696 131.871 10.862ZM131.871 4.31751C131.149 4.31858 130.457 4.60469 129.947 5.11309C129.436 5.62149 129.15 6.31068 129.149 7.02949C129.14 7.39484 129.206 7.75816 129.343 8.09709C129.481 8.43602 129.686 8.74337 129.947 9.00025C130.199 9.25425 130.498 9.45595 130.828 9.59363C131.159 9.7313 131.513 9.8022 131.871 9.8022C132.23 9.8022 132.584 9.7313 132.914 9.59363C133.245 9.45595 133.544 9.25425 133.796 9.00025C134.055 8.74175 134.261 8.43436 134.4 8.09601C134.539 7.75766 134.609 7.3951 134.606 7.02949C134.61 6.67179 134.539 6.31718 134.4 5.9875C134.261 5.65782 134.055 5.36005 133.796 5.11254C133.546 4.85609 133.247 4.65325 132.916 4.51651C132.585 4.37977 132.229 4.31204 131.871 4.31751Z" fill="#23283B"/>
<path d="M144.095 3.28436C144.168 3.28357 144.24 3.29759 144.308 3.32557C144.375 3.35355 144.437 3.39491 144.488 3.44714C144.54 3.49609 144.581 3.55513 144.609 3.62061C144.637 3.68609 144.651 3.75662 144.651 3.82784V10.3387C144.653 10.4102 144.639 10.4811 144.611 10.5468C144.583 10.6125 144.541 10.6714 144.488 10.7194C144.385 10.8177 144.247 10.8725 144.105 10.8725C143.962 10.8725 143.825 10.8177 143.722 10.7194C143.669 10.6714 143.627 10.6125 143.598 10.5468C143.57 10.4811 143.556 10.4102 143.558 10.3387V7.64828H142.442L140.628 10.6078C140.581 10.6899 140.512 10.758 140.43 10.8053C140.347 10.8525 140.253 10.8772 140.158 10.8768C140.058 10.8815 139.959 10.8547 139.874 10.8002C139.811 10.7625 139.755 10.7121 139.712 10.6521C139.668 10.5922 139.638 10.524 139.622 10.4517C139.603 10.3837 139.599 10.3124 139.611 10.2428C139.622 10.1732 139.649 10.1068 139.688 10.0482L141.219 7.56488C140.755 7.40948 140.349 7.12174 140.049 6.73756C139.756 6.36912 139.597 5.91216 139.6 5.44211C139.603 5.15408 139.664 4.86954 139.78 4.60571C139.896 4.34189 140.065 4.10426 140.276 3.9072C140.471 3.70948 140.704 3.55275 140.962 3.44624C141.219 3.33973 141.495 3.2856 141.774 3.28705L144.095 3.28436ZM143.554 6.56134V4.37265H141.816C141.669 4.36678 141.522 4.39084 141.385 4.44335C141.248 4.49585 141.122 4.57571 141.017 4.67802C140.809 4.88248 140.687 5.15898 140.678 5.45018C140.686 5.74524 140.807 6.02604 141.017 6.23445C141.121 6.34064 141.245 6.42448 141.382 6.48072C141.52 6.53696 141.667 6.56441 141.816 6.56134H143.554Z" fill="#23283B"/>
<path d="M146.452 8.82535C146.472 8.97084 146.523 9.11059 146.6 9.23598C146.676 9.36138 146.778 9.46976 146.899 9.55446C147.154 9.74392 147.467 9.83904 147.785 9.82351C148.107 9.8334 148.42 9.72028 148.66 9.50738C148.771 9.41323 148.859 9.29618 148.919 9.16442C148.98 9.03266 149.01 8.88939 149.009 8.74464C149.008 8.59568 148.977 8.44845 148.917 8.31197C148.857 8.17549 148.77 8.05264 148.66 7.95095C148.546 7.83644 148.409 7.74645 148.259 7.68653C148.108 7.62661 147.947 7.59802 147.785 7.60254C147.622 7.60647 147.463 7.55206 147.337 7.44918C147.283 7.40112 147.241 7.34225 147.213 7.27656C147.185 7.21087 147.171 7.1399 147.173 7.06848C147.172 6.99561 147.186 6.92334 147.214 6.85604C147.243 6.78875 147.284 6.72785 147.337 6.67702C147.463 6.57414 147.622 6.51973 147.785 6.52366C147.946 6.52982 148.107 6.50304 148.258 6.44497C148.408 6.3869 148.545 6.29878 148.66 6.18601C148.771 6.08233 148.859 5.95721 148.919 5.81839C148.979 5.67957 149.009 5.52999 149.009 5.37887C149.01 5.23414 148.979 5.09089 148.919 4.95915C148.859 4.8274 148.771 4.71034 148.66 4.61613C148.42 4.40323 148.107 4.29011 147.785 4.3C147.478 4.30258 147.178 4.39369 146.922 4.56232C146.693 4.69398 146.525 4.90847 146.452 5.16095C146.413 5.30373 146.329 5.42996 146.211 5.52012C146.151 5.56979 146.08 5.60379 146.004 5.61906C145.927 5.63433 145.848 5.63037 145.774 5.60756C145.403 5.5412 145.217 5.33762 145.216 4.99683C145.279 4.73394 145.393 4.48604 145.553 4.2674C145.712 4.04876 145.913 3.86371 146.145 3.7229C146.632 3.40212 147.206 3.23735 147.789 3.25072C148.42 3.24147 149.033 3.45822 149.517 3.86146C149.75 4.04169 149.938 4.27292 150.067 4.53722C150.196 4.80152 150.262 5.09181 150.26 5.3856C150.266 5.71687 150.189 6.04443 150.036 6.33887C149.884 6.63331 149.66 6.88541 149.386 7.07252C149.658 7.25921 149.88 7.50971 150.033 7.80199C150.185 8.09426 150.263 8.41936 150.26 8.74867C150.26 9.32353 150.012 9.82441 149.517 10.2513C149.042 10.6727 148.425 10.902 147.789 10.8943C147.173 10.9064 146.57 10.7174 146.072 10.3562C145.623 10.0282 145.318 9.54077 145.22 8.99485C145.22 8.65406 145.406 8.44734 145.778 8.3747C145.942 8.37367 146.102 8.42299 146.237 8.51595C146.295 8.5469 146.344 8.59109 146.382 8.64488C146.419 8.69867 146.443 8.76053 146.452 8.82535Z" fill="#23283B"/>
<path d="M151.45 10.862C151.379 10.864 151.308 10.8514 151.243 10.825C151.177 10.7986 151.117 10.759 151.068 10.7087C151.015 10.6578 150.974 10.5969 150.946 10.5296C150.917 10.4623 150.903 10.3901 150.904 10.3172V3.8063C150.901 3.73468 150.914 3.66325 150.942 3.59733C150.97 3.53141 151.013 3.47271 151.068 3.4256C151.116 3.37256 151.175 3.33046 151.241 3.30214C151.307 3.27382 151.378 3.25996 151.45 3.26148C151.522 3.26136 151.593 3.27585 151.659 3.30407C151.725 3.3323 151.784 3.37365 151.834 3.4256C151.888 3.4729 151.93 3.53163 151.959 3.59751C151.987 3.66338 152 3.73472 151.997 3.8063V6.49675C153.236 6.49675 153.859 6.50034 153.867 6.50752C154.438 6.55596 154.972 6.81101 155.367 7.22452C155.752 7.61729 155.964 8.14618 155.958 8.69486C155.95 9.25974 155.725 9.80011 155.328 10.2037C154.931 10.6073 154.393 10.843 153.826 10.862H151.45ZM151.99 7.5837V9.77239H153.729C153.876 9.77843 154.022 9.75459 154.159 9.70232C154.297 9.65004 154.422 9.57044 154.527 9.46836C154.736 9.2636 154.857 8.98644 154.865 8.69486C154.858 8.39983 154.737 8.11882 154.527 7.91059C154.424 7.8044 154.299 7.72056 154.162 7.66432C154.025 7.60808 153.877 7.58063 153.729 7.5837H151.99ZM156.287 3.76325C156.287 3.62054 156.344 3.48367 156.445 3.38276C156.547 3.28185 156.684 3.22516 156.828 3.22516C156.969 3.22936 157.105 3.28318 157.211 3.37717C157.306 3.4827 157.36 3.61796 157.364 3.75921V10.3387C157.366 10.4092 157.353 10.4793 157.327 10.5448C157.301 10.6102 157.261 10.6697 157.211 10.7194C157.162 10.7714 157.102 10.8127 157.036 10.8409C156.97 10.8692 156.899 10.8837 156.828 10.8835C156.686 10.8785 156.551 10.8202 156.451 10.7204C156.351 10.6205 156.292 10.4866 156.287 10.3455V3.76325Z" fill="#23283B"/>
<path d="M159.859 7.56219L159.183 8.26978V10.3603C159.185 10.4307 159.173 10.5009 159.147 10.5663C159.12 10.6318 159.081 10.6912 159.031 10.741C158.98 10.7934 158.919 10.835 158.851 10.8633C158.784 10.8915 158.711 10.9057 158.638 10.9051C158.566 10.9052 158.495 10.8907 158.429 10.8625C158.363 10.8343 158.303 10.7929 158.254 10.741C158.204 10.6912 158.164 10.6318 158.138 10.5663C158.112 10.5009 158.099 10.4307 158.101 10.3603V3.76865C158.104 3.62385 158.158 3.48467 158.254 3.37584C158.36 3.28165 158.496 3.2278 158.638 3.22383C158.783 3.22998 158.921 3.28718 159.028 3.38526C159.124 3.49409 159.178 3.63327 159.181 3.77807V6.72411L162.209 3.49557C162.251 3.43952 162.303 3.39239 162.363 3.35702C162.423 3.32165 162.49 3.29876 162.559 3.28975C162.631 3.27738 162.704 3.28072 162.774 3.29954C162.844 3.31837 162.909 3.35221 162.964 3.39871C163.021 3.43948 163.069 3.49144 163.105 3.55138C163.141 3.61132 163.164 3.67795 163.172 3.74713C163.185 3.81827 163.181 3.89117 163.162 3.96083C163.143 4.03049 163.109 4.09526 163.063 4.15069L160.614 6.77523L163.097 10.0186C163.146 10.0709 163.183 10.1329 163.206 10.2006C163.23 10.2683 163.238 10.3401 163.232 10.4114C163.213 10.5568 163.138 10.6893 163.024 10.7813C162.928 10.8586 162.808 10.9009 162.685 10.901C162.605 10.9023 162.526 10.8853 162.454 10.8512C162.382 10.8171 162.318 10.767 162.269 10.7046L159.859 7.56219Z" fill="#23283B"/>
<path d="M167.578 9.35941H164.91L164.45 10.4692C164.399 10.7302 164.225 10.862 163.926 10.862H163.805C163.73 10.834 163.662 10.7917 163.604 10.7374C163.546 10.6832 163.5 10.6181 163.467 10.5459C163.394 10.4665 163.375 10.332 163.412 10.1423L165.751 3.65429C165.779 3.53517 165.849 3.42995 165.948 3.35785C166.047 3.28574 166.169 3.25154 166.292 3.26149C166.41 3.2534 166.528 3.28885 166.623 3.36119C166.717 3.43353 166.782 3.53776 166.805 3.65429L169.024 10.1423C169.076 10.272 169.076 10.4162 169.024 10.5459C168.96 10.6893 168.842 10.8025 168.696 10.862C168.558 10.8864 168.417 10.8671 168.291 10.8069C168.15 10.7327 168.038 10.6138 167.973 10.4692L167.578 9.35941ZM167.255 8.25901L166.293 5.4717L165.308 8.25901H167.255Z" fill="#23283B"/>
<path d="M53.0032 14.8991C53.8137 13.0776 56.5654 13.1503 57.3354 14.969C59.748 20.0661 61.5757 25.4268 63.8789 30.5737C65.3175 30.8602 67.822 30.9449 67.6436 33.0287C67.9138 34.5475 66.4144 35.8537 64.942 35.6236C58.4579 35.6626 51.9658 35.7326 45.4777 35.6317C43.5865 35.8416 42.2573 33.8574 42.8571 32.1529C43.5487 30.7364 45.2602 30.9301 46.5435 30.5804C48.8251 25.4107 50.592 20.0123 53.0032 14.8991ZM51.8928 30.8185C54.0947 30.8104 56.2961 30.8104 58.4971 30.8185C57.4317 28.007 56.3583 25.1977 55.2767 22.3906C53.9758 25.1241 52.9411 27.976 51.8928 30.8185Z" fill="#E6514A"/>
<path d="M69.1836 15.5838C69.2295 14.3462 70.2778 13.3938 71.4395 13.4422C71.9731 13.4747 72.4767 13.6989 72.8568 14.0732C73.2369 14.4476 73.4677 14.9466 73.5063 15.4775C73.4955 19.5572 73.4838 23.6377 73.4712 27.7191C75.5965 25.2493 77.729 22.7288 79.8688 20.1576C81.3727 18.346 82.8541 16.5434 84.313 14.7498C84.5497 14.4255 84.8562 14.158 85.21 13.9668C85.9273 13.5808 86.9593 13.457 87.6078 13.9023C88.3858 14.4404 88.4372 15.5986 88.4534 16.1219C88.5277 18.5151 88.5425 25.1094 88.4291 33.9784C88.0454 35.1676 86.8959 35.9156 85.7274 35.7864C85.2213 35.7211 84.7463 35.507 84.363 35.1716C83.9797 34.8361 83.7055 34.3945 83.5755 33.9031C83.5269 30.3544 83.4787 26.8052 83.4309 23.2556L77.4237 29.6535C75.7906 31.514 74.36 33.0637 73.2091 34.3026C72.9471 34.5851 72.2176 35.3371 71.2274 35.5134C70.9978 35.5551 70.2548 35.6869 69.7091 35.2726C69.6532 35.2335 69.5999 35.1908 69.5497 35.1448C69.1188 34.7412 69.0891 34.156 69.0755 33.9179C69.0364 33.2063 69.0661 25.7699 69.1836 15.5838Z" fill="#E6514A"/>
<path d="M96.1545 16.0681C96.8543 14.2641 98.6752 12.5907 100.747 13.2875C103.044 14.3018 103.584 16.9748 104.473 19.072C106.068 23.7587 108.255 28.2599 109.506 33.0623C110.011 34.9537 107.75 36.2626 106.129 35.5725C104.635 34.6201 104.449 32.722 103.818 31.2194C101.103 31.2113 98.3956 31.2194 95.6885 31.1965C95.1833 32.4435 94.8023 33.7686 94.0675 34.9066C93.0327 36.1846 90.7147 36.0299 89.9677 34.5273C89.7259 32.3574 90.7606 30.3436 91.4685 28.3608C93.0935 24.2807 94.4444 20.1051 96.1545 16.0681ZM96.9866 26.6577C98.7995 26.6577 100.615 26.655 102.432 26.6496C101.486 23.939 100.651 21.1961 99.8112 18.4532C98.7914 21.1584 97.9133 23.9081 96.9866 26.6577Z" fill="#E6514A"/>
<path d="M117.04 17.0514C117.395 16.0021 118.272 13.4112 119.854 13.2081C120.133 13.177 120.416 13.2101 120.68 13.305C122.472 13.8834 123.198 16.3627 123.328 16.8281L129.784 33.0502C129.886 33.6007 129.793 34.1696 129.518 34.6584C129.244 35.1472 128.807 35.525 128.282 35.7264C127.757 35.9278 127.179 35.9401 126.646 35.7611C126.113 35.5822 125.66 35.2232 125.365 34.7465L120.34 22.3704L116.017 33.9138C115.673 35.0344 114.802 35.8402 113.782 35.9599C113.588 35.9828 112.392 36.0945 111.741 35.1864C111.15 34.3578 111.499 33.3731 111.534 33.2762C113.968 25.9676 115.923 20.3203 117.04 17.0514Z" fill="#E6514A"/>
<path d="M137.525 14.0314C141.5 12.5974 146.463 13.0548 149.583 16.099C153.278 19.7486 153.542 25.7846 151.653 30.3584C148.41 37.85 136.118 38.0356 132.453 30.8319C129.591 25.1551 130.982 16.4797 137.525 14.0314ZM139.128 18.5863C135.938 20.9028 135.65 25.716 137.4 28.9984C139.049 32.1825 144.138 32.4381 146.129 29.4867C147.973 26.7438 147.973 22.9085 146.284 20.089C144.883 17.7106 141.383 17.1295 139.128 18.5863Z" fill="#E6514A"/>
<path d="M156.202 14.1081L167.536 13.9736C168.672 14.3072 169.434 15.3188 169.415 16.3573C169.392 17.642 168.199 18.7975 166.691 18.7464L159.205 18.7599L159.112 33.8264C159.045 34.4166 158.763 34.9616 158.318 35.358C157.874 35.7544 157.3 35.9744 156.703 35.9762C156.107 35.978 155.531 35.7615 155.084 35.3679C154.637 34.9743 154.352 34.4309 154.281 33.8412C154.24 28.6738 154.198 23.5067 154.157 18.3402C154.122 18.1505 153.736 15.8125 155.217 14.622C155.508 14.3868 155.843 14.212 156.202 14.1081Z" fill="#E6514A"/>
<path d="M25.392 14.3946C29.2685 14.3946 32.411 11.2652 32.411 7.4048C32.411 3.54444 29.2685 0.414993 25.392 0.414993C21.5156 0.414993 18.3731 3.54444 18.3731 7.4048C18.3731 11.2652 21.5156 14.3946 25.392 14.3946Z" stroke="#23283B" stroke-width="0.83" stroke-miterlimit="10"/>
<path d="M28.8583 9.53297C27.9242 10.3362 26.7371 10.7881 25.5032 10.8102C24.2693 10.8323 23.0666 10.4232 22.1041 9.65404" stroke="#23283B" stroke-width="0.83" stroke-miterlimit="10" stroke-linecap="round"/>
<path d="M22.8014 5.54256C22.9605 5.54273 23.0854 5.6705 23.0856 5.82381C23.0856 5.97725 22.9606 6.10586 22.8014 6.10603C22.6422 6.10603 22.5163 5.97736 22.5163 5.82381C22.5165 5.6704 22.6423 5.54256 22.8014 5.54256Z" fill="#23283B" stroke="#23283B"/>
<path d="M28.3156 5.54256C28.4746 5.54273 28.5996 5.6705 28.5998 5.82381C28.5998 5.97726 28.4747 6.10586 28.3156 6.10603C28.1563 6.10603 28.0304 5.97736 28.0304 5.82381C28.0306 5.6704 28.1564 5.54256 28.3156 5.54256Z" fill="#23283B" stroke="#23283B"/>
<path d="M10.1073 17.7281C13.9838 17.7281 17.1263 14.5986 17.1263 10.7383C17.1263 6.8779 13.9838 3.74846 10.1073 3.74846C6.23082 3.74846 3.08832 6.8779 3.08832 10.7383C3.08832 14.5986 6.23082 17.7281 10.1073 17.7281Z" stroke="#23283B" stroke-width="0.83" stroke-miterlimit="10"/>
<path d="M13.5749 12.8678C12.6403 13.67 11.4532 14.1212 10.2195 14.1431C8.98583 14.165 7.78337 13.7561 6.82069 12.9875" stroke="#23283B" stroke-width="0.83" stroke-miterlimit="10" stroke-linecap="round"/>
<path d="M7.51668 8.87605C7.67569 8.87622 7.80068 9.004 7.80086 9.1573C7.80086 9.31075 7.6758 9.43936 7.51668 9.43953C7.3574 9.43953 7.23152 9.31085 7.23152 9.1573C7.2317 9.0039 7.35752 8.87605 7.51668 8.87605Z" fill="#23283B" stroke="#23283B"/>
<path d="M13.0308 8.87605C13.1898 8.87622 13.3148 9.004 13.315 9.1573C13.315 9.31075 13.1899 9.43936 13.0308 9.43953C12.8715 9.43953 12.7457 9.31085 12.7457 9.1573C12.7458 9.0039 12.8717 8.87605 13.0308 8.87605Z" fill="#23283B" stroke="#23283B"/>
<path d="M35.0857 26.6456C35.0857 21.106 30.3361 16.3882 29.5229 15.3215C28.4423 16.6573 26.3471 16.9357 25.3921 16.9869C24.437 16.9317 22.3419 16.6573 21.2625 15.3215C20.452 16.3882 15.6998 21.106 15.6998 26.6456C15.6998 30.6719 18.0813 35.0519 24.8949 35.4394V35.4703C25.0651 35.4703 25.2286 35.4703 25.3921 35.4609C25.5555 35.4515 25.7203 35.4703 25.8892 35.4703V35.4394C32.7109 35.0519 35.0857 30.6719 35.0857 26.6456Z" fill="white"/>
<path d="M35.0857 26.694C35.0857 24.8699 34.7682 23.7238 34.0482 22.1781C32.5812 19.0316 17.9732 19.3329 16.5062 22.2534C15.6741 23.9081 15.6957 24.6896 15.6957 26.6927C15.6957 30.7189 18.0772 35.0977 24.8909 35.4864V35.5174C25.0611 35.5174 25.2245 35.5174 25.388 35.508C25.5514 35.4985 25.7162 35.5174 25.8851 35.5174V35.4864C32.7109 35.099 35.0857 30.7203 35.0857 26.694Z" fill="#3035C4"/>
<path d="M15.7511 27.7231C16.7548 30.988 18.6595 35.1326 24.8949 35.4878V35.5187C25.0651 35.5187 25.2286 35.5187 25.3921 35.5093C25.5555 35.4999 25.7203 35.5187 25.8892 35.5187V35.4878C32.1219 35.1326 34.9817 30.4324 35.033 28.3177C32.9446 25.7349 20.4345 25.7349 15.7511 27.7231Z" fill="#E6514A"/>
<path opacity="0.33" d="M25.4758 33.1013C21.3287 32.687 18.265 29.3912 18.6338 25.7416C17.8584 25.6071 17.5328 26.2138 17.1276 26.3456C16.7588 29.9952 19.8293 33.291 23.9696 33.7053C25.5755 33.8756 27.196 33.569 28.6273 32.8242C27.6041 33.1154 26.5344 33.2094 25.4758 33.1013Z" fill="white"/>
<path d="M35.0857 26.6456C35.0857 21.106 30.3361 16.3882 29.5229 15.3215C28.4423 16.6573 26.3471 16.9357 25.3921 16.9869C24.437 16.9317 22.3419 16.6573 21.2625 15.3215C20.452 16.3882 15.6998 21.106 15.6998 26.6456C15.6998 30.6719 18.0813 35.0519 24.8949 35.4394V35.4703C25.0651 35.4703 25.2286 35.4703 25.3921 35.4609C25.5555 35.4515 25.7203 35.4703 25.8892 35.4703V35.4394C32.7109 35.0519 35.0857 30.6719 35.0857 26.6456Z" stroke="#23283B" stroke-width="0.83" stroke-linejoin="round"/>
<path d="M19.8009 29.5916C19.8009 24.052 15.0514 19.3343 14.2382 18.2675C13.1575 19.6033 11.0623 19.8818 10.1073 19.9315C9.15223 19.8777 7.05708 19.6033 5.97776 18.2675C5.16725 19.3343 0.414993 24.052 0.414993 29.5916C0.414993 33.6166 2.79653 37.9966 9.61152 38.384V38.415C9.78038 38.415 9.94383 38.415 10.1073 38.4056C10.2707 38.3961 10.4355 38.415 10.6044 38.415V38.384C17.4194 37.9966 19.8009 33.6166 19.8009 29.5916Z" fill="#E6514A" stroke="#23283B" stroke-width="0.83" stroke-linejoin="round"/>
<path fill-rule="evenodd" clip-rule="evenodd" d="M10.4139 27.7285L11.0367 28.5545L12.0174 28.2209L11.4203 29.0657L12.043 29.8916L11.0515 29.5876L10.4545 30.4324L10.4396 29.3993L9.44807 29.0953L10.4301 28.7616L10.4139 27.7285Z" fill="white"/>
<path d="M9.52912 32.8928C8.53242 32.8928 7.57655 32.4985 6.87178 31.7967C6.16701 31.0949 5.77108 30.143 5.77108 29.1504C5.77108 28.1578 6.16701 27.2059 6.87178 26.5041C7.57655 25.8023 8.53242 25.408 9.52912 25.408C9.93768 25.4082 10.3434 25.4755 10.73 25.6071C10.0257 25.1588 9.20765 24.9197 8.37176 24.9177C7.53587 24.9158 6.71672 25.1511 6.01028 25.596C5.30384 26.041 4.73935 26.6772 4.38294 27.4302C4.02653 28.1832 3.89296 29.0217 3.99787 29.8475C4.10279 30.6734 4.44184 31.4523 4.97532 32.0932C5.50879 32.734 6.2146 33.2102 7.01007 33.466C7.80553 33.7217 8.65771 33.7465 9.46678 33.5373C10.2758 33.3281 11.0083 32.8936 11.5783 32.2848C10.969 32.6813 10.257 32.8926 9.52912 32.8928Z" fill="white"/>
</svg>
