<svg width="16" height="16" viewBox="0 0 16 16" fill="none" xmlns="http://www.w3.org/2000/svg">
<g clip-path="url(#clip0_2121_246)">
<rect width="16" height="16" rx="8" fill="#E6514A"/>
<path d="M12.0217 10.4502L10.7212 9.14661C10.4622 8.88803 10.0332 8.89588 9.76519 9.16465L9.10999 9.82118C9.06859 9.79832 9.02575 9.77443 8.9807 9.74909C8.56695 9.51932 8.00066 9.20439 7.40476 8.6067C6.8071 8.00775 6.49259 7.43931 6.26263 7.02435C6.23837 6.98039 6.21512 6.93801 6.19216 6.89776L6.63189 6.45768L6.84808 6.24073C7.11655 5.97158 7.12396 5.54176 6.86553 5.28243L5.56503 3.97869C5.3066 3.71973 4.87744 3.72758 4.60897 3.99673L4.24244 4.3662L4.25246 4.37617C4.12956 4.53334 4.02686 4.71462 3.95043 4.91011C3.87998 5.09618 3.83612 5.27375 3.81606 5.45168C3.64434 6.87853 4.29489 8.18256 6.0604 9.9521C8.50088 12.3979 10.4676 12.2132 10.5524 12.2041C10.7372 12.182 10.9143 12.1378 11.0943 12.0677C11.2876 11.992 11.4684 11.8892 11.6251 11.7663L11.6331 11.7734L12.0044 11.409C12.2723 11.1399 12.2801 10.7099 12.0217 10.4502Z" fill="white"/>
</g>
<defs>
<clipPath id="clip0_2121_246">
<rect width="16" height="16" fill="white"/>
</clipPath>
</defs>
</svg>
