<svg width="16" height="16" viewBox="0 0 16 16" fill="none" xmlns="http://www.w3.org/2000/svg">
<g clip-path="url(#clip0_2121_167)">
<path d="M13.5401 9.18104C14.0497 9.67854 14.5875 10.1466 15.0445 10.6943C15.2464 10.9377 15.4375 11.1888 15.5838 11.4713C15.791 11.8728 15.6033 12.3146 15.2433 12.3386L13.0053 12.3376C12.4281 12.3855 11.9677 12.1531 11.5805 11.7584C11.2707 11.4428 10.9837 11.1069 10.6858 10.7807C10.5637 10.6473 10.4358 10.5219 10.2831 10.4227C9.97758 10.2244 9.71239 10.2851 9.53779 10.6037C9.35998 10.9278 9.31964 11.2867 9.3022 11.6479C9.27823 12.1749 9.11895 12.3134 8.58957 12.3375C7.45828 12.3909 6.38462 12.2197 5.38721 11.649C4.50789 11.1459 3.82601 10.4356 3.23248 9.63157C2.07687 8.06591 1.19193 6.34543 0.396615 4.57673C0.217582 4.17826 0.348521 3.96435 0.78818 3.95676C1.51828 3.94257 2.24825 3.9436 2.97919 3.95573C3.27591 3.96007 3.47235 4.13026 3.58695 4.41061C3.98195 5.38186 4.46529 6.30593 5.07195 7.16243C5.23352 7.39047 5.39824 7.6185 5.63286 7.779C5.8924 7.95672 6.08999 7.89781 6.21209 7.60872C6.28956 7.4254 6.32346 7.22797 6.34093 7.03162C6.39878 6.35615 6.4064 5.6818 6.30496 5.00873C6.24268 4.58864 6.00609 4.31673 5.58686 4.2372C5.37296 4.19667 5.4048 4.11707 5.50836 3.99498C5.68824 3.78441 5.85746 3.65332 6.19468 3.65332H8.72391C9.12207 3.73191 9.21051 3.91079 9.26501 4.31142L9.26717 7.1209C9.26282 7.27603 9.34464 7.73628 9.62401 7.83894C9.84761 7.91203 9.99498 7.73316 10.1291 7.59137C10.7347 6.94865 11.1669 6.18909 11.553 5.40255C11.7244 5.0567 11.8717 4.69755 12.0145 4.3387C12.1203 4.07242 12.2863 3.94135 12.5862 3.9472L15.0205 3.94935C15.0927 3.94935 15.1657 3.95042 15.2356 3.96238C15.6458 4.03229 15.7582 4.20876 15.6315 4.60929C15.432 5.23774 15.0435 5.76143 14.6638 6.28755C14.2579 6.84924 13.8237 7.39175 13.4211 7.95681C13.0513 8.47279 13.0806 8.73291 13.5401 9.18104Z" fill="white"/>
<path d="M8.21037 12.6652C7.07511 12.6652 6.09654 12.4219 5.22885 11.9255C4.403 11.453 3.68716 10.7841 2.97596 9.82067C1.96596 8.4521 1.08077 6.87506 0.105884 4.70726C-0.0304913 4.4037 -0.0351476 4.14823 0.0920094 3.94791C0.218979 3.74791 0.451324 3.64363 0.782607 3.63791C1.48499 3.62426 2.20546 3.62394 2.98446 3.63691C3.39334 3.64291 3.71228 3.87476 3.88194 4.28985C4.29391 5.30286 4.76819 6.18202 5.33198 6.97806C5.47313 7.17725 5.6191 7.38331 5.81279 7.51581L5.81373 7.51644C5.85032 7.54144 5.90057 7.52665 5.91789 7.4859L5.91845 7.48456C5.97223 7.35737 6.00551 7.20443 6.02342 7.00321C6.08764 6.25374 6.07695 5.63471 5.98973 5.05605C5.94557 4.7582 5.80307 4.60242 5.52745 4.55014C5.44917 4.53532 5.21082 4.49017 5.13082 4.26395C5.05176 4.04038 5.20691 3.85751 5.26535 3.78863C5.46717 3.55238 5.71885 3.33447 6.19467 3.33447H8.7239C8.7435 3.33447 8.76334 3.33616 8.78259 3.33991C9.41966 3.46444 9.52625 3.86688 9.58085 4.26832C9.58275 4.28248 9.58375 4.29676 9.58375 4.31104L9.58591 7.12053C9.58591 7.12359 9.58588 7.12665 9.58578 7.12975C9.58416 7.18809 9.59997 7.27122 9.62403 7.34753C9.65747 7.45343 9.79319 7.48365 9.86913 7.40256C9.86953 7.40212 9.86997 7.40165 9.87041 7.40122L9.89766 7.37222C10.5109 6.72137 10.934 5.94021 11.267 5.26198C11.441 4.91067 11.5912 4.54032 11.7185 4.22076C11.8774 3.82063 12.169 3.62135 12.5894 3.62838L15.0208 3.63054C15.1046 3.63054 15.1946 3.63188 15.2894 3.64813C15.4836 3.68122 15.7592 3.75341 15.9078 3.99695C16.0564 4.24045 15.9948 4.51782 15.9354 4.70526C15.7278 5.35902 15.3402 5.89546 14.9653 6.4143L14.9222 6.47399C14.7301 6.73984 14.5297 7.00418 14.3358 7.25981C14.1177 7.54737 13.8922 7.84475 13.6807 8.14163C13.5392 8.339 13.4777 8.47254 13.4867 8.56254C13.4959 8.6541 13.5835 8.77807 13.7626 8.95272C13.7626 8.95276 13.7627 8.95279 13.7627 8.95282C13.8958 9.08279 14.034 9.2137 14.1677 9.34029C14.548 9.70045 14.9412 10.0729 15.2892 10.49C15.4809 10.721 15.6989 11.0002 15.8668 11.3246C16.0278 11.6367 16.0302 11.9886 15.8733 12.2665C15.743 12.4972 15.521 12.6393 15.2644 12.6564C15.2573 12.6569 15.2503 12.6571 15.2432 12.6571C15.2432 12.6571 15.2431 12.6571 15.2431 12.6571L13.0179 12.6561C12.3986 12.7037 11.8387 12.4766 11.353 11.9815C11.1382 11.7627 10.9332 11.5334 10.735 11.3116C10.6419 11.2074 10.5456 11.0997 10.4504 10.9954C10.3564 10.8928 10.2421 10.776 10.1094 10.6898C10.0368 10.6426 9.97154 10.6201 9.93472 10.6293C9.90007 10.638 9.85616 10.6856 9.81722 10.7566C9.678 11.0104 9.63788 11.3025 9.62044 11.663C9.58938 12.3452 9.30438 12.6237 8.60397 12.6557C8.47084 12.662 8.33949 12.6652 8.21037 12.6652ZM0.638919 4.2952C0.642013 4.32092 0.652731 4.36895 0.687325 4.44592C1.6428 6.57062 2.50684 8.1115 3.4889 9.4421C4.14563 10.3319 4.79913 10.9452 5.54545 11.3722C6.40336 11.863 7.39405 12.0744 8.57456 12.0189C8.82022 12.0077 8.89384 11.9709 8.91587 11.95C8.93272 11.934 8.97297 11.8711 8.98381 11.6331C9.00262 11.244 9.04887 10.832 9.25834 10.4502C9.42006 10.155 9.63072 10.0485 9.77897 10.0111C9.92875 9.97336 10.168 9.96773 10.4566 10.1551C10.6494 10.2803 10.7994 10.4326 10.9208 10.5652C11.0186 10.6723 11.1161 10.7814 11.2103 10.8867C11.4036 11.1031 11.6035 11.3267 11.8079 11.5349C12.1682 11.9021 12.5407 12.0562 12.979 12.0196C12.9877 12.0189 12.9965 12.0186 13.0052 12.0186C13.0053 12.0186 13.0054 12.0186 13.0055 12.0186L15.2302 12.0196C15.2497 12.0172 15.2875 12.0073 15.3182 11.953C15.3557 11.8865 15.3736 11.7587 15.3005 11.6171C15.1606 11.3469 14.9686 11.1017 14.7992 10.8975C14.4757 10.5097 14.1132 10.1664 13.7294 9.80289C13.594 9.6747 13.4541 9.54214 13.3175 9.40885C12.7398 8.84535 12.6991 8.41669 13.1621 7.77084C13.3786 7.46693 13.607 7.16575 13.8279 6.87446C14.0196 6.62168 14.2178 6.36033 14.4055 6.10058L14.4487 6.0408C14.8099 5.54074 15.1512 5.06842 15.3278 4.51251C15.3629 4.40164 15.3633 4.34851 15.3616 4.33004C15.3459 4.3201 15.2981 4.29604 15.1821 4.27626C15.1363 4.26842 15.0772 4.26776 15.0205 4.26776L12.586 4.2656C12.584 4.2656 12.5821 4.2656 12.5801 4.26554C12.4368 4.26251 12.3767 4.28988 12.3107 4.4561C12.1788 4.78754 12.0228 5.17205 11.8386 5.54377C11.4852 6.26362 11.0329 7.09668 10.3611 7.80966L10.3357 7.83672C10.1929 7.98919 9.92697 8.27297 9.525 8.1416C9.52135 8.14038 9.51769 8.13913 9.51406 8.13781C9.07253 7.97556 8.94284 7.38375 8.94844 7.11687L8.94631 4.33329C8.93215 4.23388 8.90906 4.1067 8.86862 4.05288C8.85909 4.04023 8.83128 4.00323 8.69084 3.97173H6.19473C6.09295 3.97173 6.01961 3.98585 5.95454 4.01973C6.32089 4.18592 6.55345 4.51126 6.62023 4.96167C6.71499 5.59033 6.72717 6.25687 6.65852 7.05849C6.63449 7.32868 6.58595 7.54253 6.50567 7.73244C6.38123 8.02706 6.19648 8.13547 6.06336 8.17453C5.93029 8.21353 5.71642 8.22216 5.45279 8.04166C5.16504 7.84475 4.96919 7.5684 4.81188 7.34634C4.21941 6.50984 3.72219 5.58874 3.29172 4.53032C3.20059 4.30735 3.08025 4.27563 2.97456 4.27407C2.20258 4.2612 1.48964 4.26154 0.794389 4.27504C0.710888 4.27667 0.663294 4.2872 0.638919 4.2952Z" fill="white"/>
<path d="M2.04026 5.76347C1.92385 5.76347 1.81163 5.69947 1.75554 5.58847C1.70785 5.49412 1.6606 5.3995 1.61376 5.30468C1.53579 5.14687 1.60054 4.95571 1.75835 4.87777C1.91626 4.79977 2.10729 4.86459 2.18526 5.02237C2.23123 5.11543 2.27764 5.20831 2.32445 5.30093C2.40382 5.45803 2.34086 5.64972 2.18376 5.72916C2.13767 5.75244 2.08857 5.76347 2.04026 5.76347Z" fill="white"/>
<path d="M4.06742 9.11515C3.9697 9.11515 3.87323 9.07036 3.81073 8.98568C3.27142 8.25495 2.76776 7.46292 2.271 6.56426C2.18585 6.41023 2.24172 6.21629 2.39575 6.13113C2.54979 6.04601 2.74373 6.10182 2.82888 6.25589C3.31201 7.12992 3.80095 7.89905 4.32358 8.60711C4.42808 8.74874 4.39802 8.9483 4.25642 9.0528C4.19951 9.09493 4.13317 9.11515 4.06742 9.11515Z" fill="white"/>
</g>
<defs>
<clipPath id="clip0_2121_167">
<rect width="16" height="16" fill="white"/>
</clipPath>
</defs>
</svg>
